<svg fill="none" xmlns="http://www.w3.org/2000/svg" viewBox="0 0 160 120" class="design-iconfont">
  <g clip-path="url(#aqoi903jp__clip0_20010373_368206)">
    <path d="M140.969 58.2675C134.715 53.7813 127.225 51.606 120.325 48.3571C113.692 45.2326 108.975 40.2039 103.038 36.068C93.343 29.3047 82.134 24.2308 70.7265 21.1345C59.1942 18.0043 45.0993 16.2697 34.5876 23.2081C29.4168 26.6209 25.2099 31.9151 23.4919 37.893C21.4508 45.0065 23.4466 52.2727 24.4274 59.3806C25.2212 65.1551 21.5019 68.3418 17.1192 71.6245C6.85694 79.3088 3.27803 91.926 18.1387 101.768C32.9994 111.609 124.572 111.659 139.461 101.297C154.35 90.9339 156.884 69.6978 140.969 58.2675Z" fill="#F0F3FA"/>
    <g filter="url(#aqoi903jp__filter0_d_20010373_368206)">
      <path d="M115.004 30.2998L115.804 94.6998C115.804 96.8998 114.004 98.5998 111.804 98.5998H49C46.8 98.5998 45 96.7998 45 94.6998V11.8998C45 9.69976 46.8 7.99976 49 7.99976H94.504L115.004 30.2998Z" fill="url(#aqoi903jp__paint0_linear_20010373_368206)"/>
    </g>
    <path d="M77.6998 21.4989H55.5998C54.8998 21.4989 54.2998 20.8989 54.2998 20.1989C54.2998 19.4989 54.8998 18.8989 55.5998 18.8989H77.6998C78.3998 18.8989 78.9998 19.4989 78.9998 20.1989C78.9998 20.8989 78.3998 21.4989 77.6998 21.4989Z" fill="#D5DDEA"/>
    <path d="M67.1998 28.6999H55.5998C54.8998 28.6999 54.2998 28.0999 54.2998 27.3999C54.2998 26.6999 54.8998 26.0999 55.5998 26.0999H67.0998C67.7998 26.0999 68.3998 26.6999 68.3998 27.3999C68.3998 28.0999 67.7998 28.6999 67.1998 28.6999Z" fill="#D5DDEA"/>
    <path d="M94.5039 7.99976V25.7998C94.5039 28.2998 96.7039 30.2998 99.2039 30.2998H115.004" fill="#D5DDEA"/>
    <path d="M64.2324 21.2649L68.9844 4.50488L88.5034 6.75288L81.6874 17.6749L86.9654 21.8919L75.6024 46.7449L76.2354 27.5039L64.2324 21.2649Z" fill="#EAEEF9"/>
    <path d="M67.0418 74.1679C66.6218 74.1679 66.2858 73.9999 65.9498 73.7479C65.3618 73.1599 65.3618 72.1509 65.9498 71.5629C69.8138 67.7829 74.9388 65.6819 80.3998 65.6819C85.8608 65.6819 90.9838 67.7829 94.8538 71.5629C95.4338 72.1509 95.4338 73.1599 94.8538 73.7479C94.2638 74.3359 93.2538 74.3359 92.6638 73.7479C89.3938 70.4709 85.0208 68.7069 80.3998 68.7069C75.7788 68.7069 71.4108 70.4709 68.1338 73.7479C67.7978 73.9999 67.4618 74.1679 67.0418 74.1679Z" fill="#989FB0"/>
    <path d="M72.3348 51.6518L74.3508 49.6358C74.9388 49.0478 74.9388 48.0398 74.3508 47.4518C73.7628 46.8628 72.7548 46.8628 72.1668 47.4518L70.1508 49.4678L68.1338 47.4518C67.5458 46.8628 66.5378 46.8628 65.9498 47.4518C65.3618 48.0398 65.3618 49.0478 65.9498 49.6358L67.9658 51.6518L65.9498 53.6688C65.3618 54.2568 65.3618 55.2648 65.9498 55.8528C66.2858 56.1888 66.6218 56.2728 67.0418 56.2728C67.4618 56.2728 67.7978 56.1048 68.1338 55.8528L70.1508 53.8368L72.1668 55.8528C72.5028 56.1888 72.8388 56.2728 73.2588 56.2728C73.6788 56.2728 74.0148 56.1048 74.3508 55.8528C74.9388 55.2648 74.9388 54.2568 74.3508 53.6688L72.3348 51.6518Z" fill="#989FB0"/>
    <path d="M92.7538 51.6518L94.7638 49.6358C95.3538 49.0478 95.3538 48.0398 94.7638 47.4518C94.1738 46.8628 93.1738 46.8628 92.5838 47.4518L90.5638 49.4678L88.5538 47.4518C87.9638 46.8628 86.9528 46.8628 86.3648 47.4518C85.7768 48.0398 85.7768 49.0478 86.3648 49.6358L88.3838 51.6518L86.3648 53.6688C85.7768 54.2568 85.7768 55.2648 86.3648 55.8528C86.7008 56.1888 87.0368 56.2728 87.4568 56.2728C87.8768 56.2728 88.2138 56.1048 88.5538 55.8528L90.5638 53.8368L92.5838 55.8528C92.9138 56.1888 93.2538 56.2728 93.6738 56.2728C94.0938 56.2728 94.4338 56.1048 94.7638 55.8528C95.3538 55.2648 95.3538 54.2568 94.7638 53.6688L92.7538 51.6518Z" fill="#989FB0"/>
    <path d="M104.028 10.0672L106.184 3.58256L108.082 4.2138L105.925 10.6984L104.028 10.0672Z" fill="#A2ABBE"/>
    <path d="M125.655 8.85661L114.019 17.384L112.837 15.7708L124.473 7.24343L125.655 8.85661Z" fill="#A2ABBE"/>
    <path d="M130.917 23.2011L116.876 26.5117L116.417 24.5651L130.458 21.2545L130.917 23.2011Z" fill="#A2ABBE"/>
  </g>
  <defs>
    <linearGradient id="aqoi903jp__paint0_linear_20010373_368206" x1="80.3796" y1="5.90105" x2="80.3796" y2="99.5746" gradientUnits="userSpaceOnUse">
      <stop stop-color="#FDFEFF"/>
      <stop offset=".9964" stop-color="#ECF0F5"/>
    </linearGradient>
    <clipPath id="aqoi903jp__clip0_20010373_368206">
      <path fill="#fff" d="M0 0H160V120H0z"/>
    </clipPath>
    <filter id="aqoi903jp__filter0_d_20010373_368206" x="33" y="7.99976" width="94.8037" height="114.6" filterUnits="userSpaceOnUse" color-interpolation-filters="sRGB">
      <feFlood flood-opacity="0" result="BackgroundImageFix"/>
      <feColorMatrix in="SourceAlpha" values="0 0 0 0 0 0 0 0 0 0 0 0 0 0 0 0 0 0 127 0" result="hardAlpha"/>
      <feOffset dy="12"/>
      <feGaussianBlur stdDeviation="6"/>
      <feComposite in2="hardAlpha" operator="out"/>
      <feColorMatrix values="0 0 0 0 0.396078 0 0 0 0 0.478431 0 0 0 0 0.576471 0 0 0 0.24 0"/>
      <feBlend in2="BackgroundImageFix" result="effect1_dropShadow_20010373_368206"/>
      <feBlend in="SourceGraphic" in2="effect1_dropShadow_20010373_368206" result="shape"/>
    </filter>
  </defs>
</svg>
