<svg fill="none" xmlns="http://www.w3.org/2000/svg" viewBox="0 0 160 120" class="design-iconfont">
  <g clip-path="url(#k0x0o5ctm__clip0_20010373_368171)">
    <path d="M140.969 58.2675C134.715 53.7813 127.225 51.606 120.325 48.3571C113.692 45.2326 108.975 40.2039 103.038 36.068C93.343 29.3047 82.134 24.2308 70.7265 21.1345C59.1942 18.0043 45.0993 16.2697 34.5876 23.2081C29.4168 26.6209 25.2099 31.9151 23.4919 37.893C21.4508 45.0065 23.4466 52.2727 24.4274 59.3806C25.2212 65.1551 21.5019 68.3418 17.1192 71.6245C6.85694 79.3088 3.27803 91.926 18.1387 101.768C32.9994 111.609 124.572 111.659 139.461 101.297C154.35 90.9339 156.884 69.6978 140.969 58.2675Z" fill="#F0F3FA"/>
    <g filter="url(#k0x0o5ctm__filter0_d_20010373_368171)">
      <path d="M111.6 29.3L112.4 93.7C112.4 95.9 110.6 97.6 108.4 97.6H45.5996C43.3996 97.6 41.5996 95.8 41.5996 93.7V10.9C41.5996 8.7 43.3996 7 45.5996 7H91.0996L111.6 29.3Z" fill="url(#k0x0o5ctm__paint0_linear_20010373_368171)"/>
    </g>
    <path d="M72.2 84.7H69.9C69.4 84.7 69 84.2 69 83.6C69 83 69.4 82.5 69.9 82.5H72.2C72.7 82.5 73.1 83 73.1 83.6C73.1 84.3 72.7 84.7 72.2 84.7Z" fill="#CED7E2"/>
    <path d="M96.2 68.7H93.9C93.4 68.7 93 68.2 93 67.6C93 67 93.4 66.5 93.9 66.5H96.2C96.7 66.5 97.1 67 97.1 67.6C97.1 68.3 96.7 68.7 96.2 68.7Z" fill="#CED7E2"/>
    <path d="M96.2 55.7H93.9C93.4 55.7 93 55.2 93 54.6C93 54 93.4 53.5 93.9 53.5H96.2C96.7 53.5 97.1 54 97.1 54.6C97.1 55.3 96.7 55.7 96.2 55.7Z" fill="#CED7E2"/>
    <path d="M65.1994 84.7H51.7994C51.2994 84.7 50.8994 84.2 50.8994 83.6C50.8994 83 51.2994 82.5 51.7994 82.5H65.1994C65.6994 82.5 66.0994 83 66.0994 83.6C66.0994 84.3 65.6994 84.7 65.1994 84.7Z" fill="#D5DDEA"/>
    <path d="M81.1994 68.7H59.7994C59.2994 68.7 50.8994 68.2 50.8994 67.6C50.8994 67 59.2994 66.5 59.7994 66.5H81.1994C81.6994 66.5 82.0994 67 82.0994 67.6C82.0994 68.3 81.6994 68.7 81.1994 68.7Z" fill="#D5DDEA"/>
    <path d="M81.1994 55.7H51.7994C51.2994 55.7 50.8994 55.2 50.8994 54.6C50.8994 54 51.2994 53.5 51.7994 53.5H81.1994C81.6994 53.5 82.0994 54 82.0994 54.6C82.0994 55.3 81.6994 55.7 81.1994 55.7Z" fill="#D5DDEA"/>
    <path d="M82.2994 20.4999H52.1994C51.4994 20.4999 50.8994 19.8999 50.8994 19.1999C50.8994 18.4999 51.4994 17.8999 52.1994 17.8999H82.2994C82.9994 17.8999 83.5994 18.4999 83.5994 19.1999C83.5994 19.8999 82.9994 20.4999 82.2994 20.4999Z" fill="#D5DDEA"/>
    <path d="M63.7994 30.6996H52.1994C51.4994 30.6996 50.8994 30.0996 50.8994 29.3996C50.8994 28.6996 51.4994 28.0996 52.1994 28.0996H63.6994C64.3994 28.0996 64.9994 28.6996 64.9994 29.3996C64.9994 30.0996 64.3994 30.6996 63.7994 30.6996Z" fill="#D5DDEA"/>
    <path d="M79.7994 41.6996H52.1994C51.4994 41.6996 50.8994 41.0996 50.8994 40.3996C50.8994 39.6996 51.4994 39.0996 52.1994 39.0996H79.6994C80.3994 39.0996 80.9994 39.6996 80.9994 40.3996C80.9994 41.0996 80.3994 41.6996 79.7994 41.6996Z" fill="#D5DDEA"/>
    <path d="M91.0996 7V24.8C91.0996 27.3 93.2996 29.3 95.7996 29.3H111.6" fill="#D5DDEA"/>
    <g filter="url(#k0x0o5ctm__filter1_d_20010373_368171)">
      <path d="M110.965 89.3587L94.543 72.9504L98.3079 69.1797L114.717 85.6045L110.965 89.3587Z" fill="#858B9B"/>
      <path d="M116.674 95.1294L104.081 82.5329C103.03 81.4873 103.03 79.7749 104.081 78.721C105.133 77.6672 106.847 77.6672 107.898 78.721L120.491 91.3093C121.542 92.3631 121.542 94.0756 120.491 95.1294C119.439 96.1832 117.725 96.1832 116.674 95.1294Z" fill="#858B9B"/>
      <path d="M115.778 95.9363L99.5761 79.7337C99.1999 79.355 99.1999 78.7458 99.5761 78.3588L103.717 74.2176C104.094 73.8389 104.704 73.8389 105.094 74.2176L121.296 90.4202C121.672 90.7906 121.672 91.3999 121.296 91.7951L117.154 95.9363C116.764 96.3067 116.154 96.3067 115.778 95.9363Z" fill="url(#k0x0o5ctm__paint1_linear_20010373_368171)"/>
      <path d="M106.217 51.213C106.217 67.9132 92.6788 81.4514 75.9786 81.4514C59.2784 81.4514 45.7402 67.9132 45.7402 51.213C45.7402 34.5128 59.2784 20.9746 75.9786 20.9746C92.6788 20.9746 106.217 34.5128 106.217 51.213ZM53.2998 51.213C53.2998 63.7381 63.4535 73.8918 75.9786 73.8918C88.5038 73.8918 98.6574 63.7381 98.6574 51.213C98.6574 38.6878 88.5038 28.5342 75.9786 28.5342C63.4535 28.5342 53.2998 38.6878 53.2998 51.213Z" fill="url(#k0x0o5ctm__paint2_linear_20010373_368171)"/>
    </g>
  </g>
  <defs>
    <linearGradient id="k0x0o5ctm__paint0_linear_20010373_368171" x1="76.9772" y1="4.90129" x2="76.9772" y2="98.5748" gradientUnits="userSpaceOnUse">
      <stop stop-color="#FDFEFF"/>
      <stop offset=".9964" stop-color="#ECF0F5"/>
    </linearGradient>
    <linearGradient id="k0x0o5ctm__paint1_linear_20010373_368171" x1="99.2839" y1="85.0769" x2="121.581" y2="85.0769" gradientUnits="userSpaceOnUse">
      <stop stop-color="#B0BACC"/>
      <stop offset="1" stop-color="#969EAE"/>
    </linearGradient>
    <linearGradient id="k0x0o5ctm__paint2_linear_20010373_368171" x1="45.7122" y1="51.225" x2="106.228" y2="51.225" gradientUnits="userSpaceOnUse">
      <stop stop-color="#B0BACC"/>
      <stop offset="1" stop-color="#969EAE"/>
    </linearGradient>
    <filter id="k0x0o5ctm__filter0_d_20010373_368171" x="29.5996" y="7" width="94.7998" height="114.6" filterUnits="userSpaceOnUse" color-interpolation-filters="sRGB">
      <feFlood flood-opacity="0" result="BackgroundImageFix"/>
      <feColorMatrix in="SourceAlpha" values="0 0 0 0 0 0 0 0 0 0 0 0 0 0 0 0 0 0 127 0" result="hardAlpha"/>
      <feOffset dy="12"/>
      <feGaussianBlur stdDeviation="6"/>
      <feComposite in2="hardAlpha" operator="out"/>
      <feColorMatrix values="0 0 0 0 0.396078 0 0 0 0 0.478431 0 0 0 0 0.576471 0 0 0 0.24 0"/>
      <feBlend in2="BackgroundImageFix" result="effect1_dropShadow_20010373_368171"/>
      <feBlend in="SourceGraphic" in2="effect1_dropShadow_20010373_368171" result="shape"/>
    </filter>
    <filter id="k0x0o5ctm__filter1_d_20010373_368171" x="37.7402" y="16.9746" width="91.8379" height="91.2397" filterUnits="userSpaceOnUse" color-interpolation-filters="sRGB">
      <feFlood flood-opacity="0" result="BackgroundImageFix"/>
      <feColorMatrix in="SourceAlpha" values="0 0 0 0 0 0 0 0 0 0 0 0 0 0 0 0 0 0 127 0" result="hardAlpha"/>
      <feOffset dy="4"/>
      <feGaussianBlur stdDeviation="4"/>
      <feComposite in2="hardAlpha" operator="out"/>
      <feColorMatrix values="0 0 0 0 0.396078 0 0 0 0 0.478431 0 0 0 0 0.576471 0 0 0 0.2 0"/>
      <feBlend in2="BackgroundImageFix" result="effect1_dropShadow_20010373_368171"/>
      <feBlend in="SourceGraphic" in2="effect1_dropShadow_20010373_368171" result="shape"/>
    </filter>
    <clipPath id="k0x0o5ctm__clip0_20010373_368171">
      <path fill="#fff" d="M0 0H160V120H0z"/>
    </clipPath>
  </defs>
</svg>
