<?xml version="1.0" standalone="no"?><!DOCTYPE svg PUBLIC "-//W3C//DTD SVG 1.1//EN" "http://www.w3.org/Graphics/SVG/1.1/DTD/svg11.dtd"><svg t="1643165865022" class="icon" viewBox="0 0 1024 1024" version="1.1" xmlns="http://www.w3.org/2000/svg" p-id="42353" xmlns:xlink="http://www.w3.org/1999/xlink" width="200" height="200"><defs><style type="text/css"></style></defs><path d="M512 85.312a426.624 426.624 0 1 1 0 853.312A426.624 426.624 0 0 1 512 85.312z m0 85.376a341.312 341.312 0 1 0 0 682.624A341.312 341.312 0 0 0 512 170.688z m0 128a213.312 213.312 0 1 1-203.904 150.464A106.624 106.624 0 0 0 512 405.312a106.688 106.688 0 0 0-62.848-97.28c19.84-6.08 40.96-9.344 62.848-9.344z" p-id="42354"></path></svg>