<svg fill="none" xmlns="http://www.w3.org/2000/svg" viewBox="0 0 16 16" class="design-iconfont">
  <path d="M14 8C14 4.68629 11.3137 2 8 2C4.68629 2 2 4.68629 2 8C2 11.3137 4.68629 14 8 14C11.3137 14 14 11.3137 14 8Z" fill="#E4E7ED"/>
  <path fill-rule="evenodd" clip-rule="evenodd" d="M9.0889 5.42843C9.0889 5.90181 8.70515 6.28557 8.23176 6.28557C7.75838 6.28557 7.37462 5.90181 7.37462 5.42843C7.37462 4.95505 7.75838 4.57129 8.23176 4.57129C8.70515 4.57129 9.0889 4.95505 9.0889 5.42843ZM8.29634 7.16624C8.63343 7.16146 8.82617 7.42438 8.74972 7.63741C8.66286 7.87942 8.54207 8.18188 8.41475 8.50072C8.03354 9.45531 7.5937 10.5567 7.83009 10.6225C8.14382 10.7096 8.54633 10.1496 8.72483 9.86972C8.77198 9.79582 8.87808 9.78461 8.937 9.8495C9.00778 9.92746 9.02403 10.0412 8.97545 10.1346C8.51021 11.0293 8.06106 11.4284 7.53039 11.4284C6.60913 11.4284 7.17966 9.44016 7.46816 8.43474C7.54735 8.15874 7.6053 7.95681 7.6053 7.8904C7.6053 7.70113 6.73607 8.22326 6.73607 8.22326C6.69566 8.25592 6.60987 8.29477 6.5239 8.24348C6.43794 8.19219 6.43688 8.05177 6.48545 7.95836C6.48545 7.95836 7.16471 7.18232 8.29634 7.16624Z" fill="#1F2229"/>
</svg>
