<svg width="16" height="16" viewBox="0 0 16 16" fill="none" xmlns="http://www.w3.org/2000/svg">
<g clip-path="url(#clip0_12073_50780)">
<path fill-rule="evenodd" clip-rule="evenodd" d="M7.99998 1.33268C4.31769 1.33268 1.33331 4.31706 1.33331 7.99935C1.33331 11.6816 4.31769 14.666 7.99998 14.666C11.6823 14.666 14.6666 11.6816 14.6666 7.99935C14.6666 4.31706 11.6823 1.33268 7.99998 1.33268ZM12.0508 12.0501C11.5247 12.5762 10.9114 12.9902 10.2291 13.278C9.52342 13.5775 8.77342 13.7285 7.99998 13.7285C7.22654 13.7285 6.47654 13.5775 5.77081 13.2793C5.08852 12.9902 4.47654 12.5775 3.9492 12.0514C3.42316 11.5254 3.00909 10.9121 2.72133 10.2298C2.42185 9.52279 2.27081 8.77279 2.27081 7.99935C2.27081 7.22591 2.42185 6.47591 2.72003 5.77018C3.00909 5.08789 3.42185 4.47591 3.9479 3.94857C4.47394 3.42253 5.08722 3.00846 5.76951 2.7207C6.47654 2.42122 7.22654 2.27018 7.99998 2.27018C8.77342 2.27018 9.52342 2.42122 10.2291 2.7194C10.9114 3.00846 11.5234 3.42122 12.0508 3.94726C12.5768 4.47331 12.9909 5.08659 13.2786 5.76888C13.5781 6.47591 13.7291 7.22591 13.7291 7.99935C13.7291 8.77279 13.5781 9.52279 13.2799 10.2285C12.9909 10.9108 12.5781 11.5241 12.0508 12.0501ZM9.53903 10.5212H8.42966V5.96261C8.42966 5.7035 8.22002 5.49386 7.96091 5.49386H7.49216H6.71091C6.45179 5.49386 6.24216 5.7035 6.24216 5.96261C6.24216 6.22173 6.45179 6.43136 6.71091 6.43136H7.49216V10.5212H6.38278C6.12367 10.5212 5.91403 10.7308 5.91403 10.99C5.91403 11.2491 6.12367 11.4587 6.38278 11.4587H7.49216H8.42966H9.53903C9.79815 11.4587 10.0078 11.2491 10.0078 10.99C10.0078 10.7308 9.79815 10.5212 9.53903 10.5212ZM7.49217 4.20378C7.49217 3.94489 7.70203 3.73503 7.96092 3.73503C8.2198 3.73503 8.42967 3.94489 8.42967 4.20378C8.42967 4.46266 8.2198 4.67253 7.96092 4.67253C7.70203 4.67253 7.49217 4.46266 7.49217 4.20378V4.20378Z" fill="#83878F"/>
</g>
<defs>
<clipPath id="clip0_12073_50780">
<rect width="16" height="16" fill="white"/>
</clipPath>
</defs>
</svg>
