<?xml version="1.0" standalone="no"?><!DOCTYPE svg PUBLIC "-//W3C//DTD SVG 1.1//EN" "http://www.w3.org/Graphics/SVG/1.1/DTD/svg11.dtd"><svg t="1647419444854" class="icon" viewBox="0 0 1024 1024" version="1.1" xmlns="http://www.w3.org/2000/svg" p-id="28315" xmlns:xlink="http://www.w3.org/1999/xlink" width="200" height="200"><defs><style type="text/css"></style></defs><path d="M512 64C264.533333 64 64 264.533333 64 512S264.533333 960 512 960 960 759.466667 960 512 759.466667 64 512 64z m0 140.8c25.6 0 42.666667 17.066667 42.666667 42.666667s-17.066667 42.666667-42.666667 42.666666-42.666667-17.066667-42.666667-42.666666 17.066667-42.666667 42.666667-42.666667z m102.4 537.6h-213.333333c-17.066667 0-29.866667-12.8-29.866667-29.866667 0-17.066667 12.8-29.866667 34.133333-29.866666h72.533334V405.333333H426.666667c-17.066667 0-29.866667-12.8-29.866667-29.866666 0-17.066667 12.8-29.866667 29.866667-29.866667h85.333333c17.066667 0 29.866667 12.8 29.866667 29.866667V682.666667h72.533333c17.066667 0 29.866667 12.8 29.866667 29.866666 4.266667 17.066667-12.8 29.866667-29.866667 29.866667z" p-id="28316"></path></svg>