<svg width="14" height="14" viewBox="0 0 14 14" xmlns="http://www.w3.org/2000/svg">
<path d="M7 1.75C6.51875 1.75 6.125 2.14375 6.125 2.625C6.125 3.10625 6.51875 3.5 7 3.5C7.48125 3.5 7.875 3.10625 7.875 2.625C7.875 2.14375 7.48125 1.75 7 1.75ZM7 10.5C6.51875 10.5 6.125 10.8937 6.125 11.375C6.125 11.8562 6.51875 12.25 7 12.25C7.48125 12.25 7.875 11.8562 7.875 11.375C7.875 10.8937 7.48125 10.5 7 10.5ZM7 6.125C6.51875 6.125 6.125 6.51875 6.125 7C6.125 7.48125 6.51875 7.875 7 7.875C7.48125 7.875 7.875 7.48125 7.875 7C7.875 6.51875 7.48125 6.125 7 6.125Z"/>
</svg>
