<svg fill="none" xmlns="http://www.w3.org/2000/svg" viewBox="0 0 160 120" class="design-iconfont">
  <path
    d="M140.969 58.2675C134.715 53.7813 127.226 51.606 120.325 48.3571C113.692 45.2326 108.975 40.2039 103.038 36.068C93.3432 29.3047 82.1341 24.2308 70.7266 21.1345C59.1944 18.0043 45.0994 16.2697 34.5877 23.2081C29.4169 26.6209 25.21 31.9151 23.4921 37.893C21.451 45.0065 23.4467 52.2727 24.4276 59.3806C25.2213 65.1551 21.502 68.3418 17.1193 71.6245C6.85707 79.3088 3.27815 91.926 18.1388 101.768C32.9995 111.609 124.572 111.659 139.461 101.297C154.35 90.9339 156.884 69.6978 140.969 58.2675Z"
    fill="#F0F3FA"
  />
  <path
    d="M140.949 33.5137C143.82 33.5137 146.146 31.194 146.146 28.3165C146.146 25.4517 143.82 23.1193 140.949 23.1193C138.079 23.1193 135.752 25.4517 135.752 28.3165C135.752 31.194 138.079 33.5137 140.949 33.5137Z"
    fill="#EAEEF9"
  />
  <path
    d="M148.509 11.7799C149.814 11.7799 150.871 10.7253 150.871 9.41755C150.871 8.11824 149.814 7.05518 148.509 7.05518C147.204 7.05518 146.146 8.11824 146.146 9.41755C146.146 10.7253 147.204 11.7799 148.509 11.7799Z"
    fill="#EAEEF9"
  />
  <path
    d="M23.3029 13.6698C24.8692 13.6698 26.1378 12.4043 26.1378 10.835C26.1378 9.2758 24.8692 8.00012 23.3029 8.00012C21.7377 8.00012 20.4681 9.2758 20.4681 10.835C20.4681 12.4043 21.7377 13.6698 23.3029 13.6698Z"
    fill="#EAEEF9"
  />
  <path
    d="M9.60115 66.5869C11.9497 66.5869 13.8534 64.6816 13.8534 62.3347C13.8534 59.9877 11.9497 58.0824 9.60115 58.0824C7.2534 58.0824 5.34888 59.9877 5.34888 62.3347C5.34888 64.6816 7.2534 66.5869 9.60115 66.5869Z"
    fill="#EAEEF9"
  />
  <path
    d="M149.327 44.9732H130.399C129.6 44.9732 129 44.32 129 43.5727V23.3942C129 22.5966 129.649 22 130.399 22H149.327C150.126 22 150.725 22.6469 150.725 23.3942V43.5727C150.775 44.32 150.126 44.9732 149.327 44.9732Z"
    fill="#E4E9F5"
  />
  <path
    d="M146.98 33.0847C146.98 35.4335 145.831 37.5814 144.083 38.8814H135.543C133.795 37.5814 132.646 35.4838 132.646 33.0847C132.646 30.7359 133.795 28.588 135.543 27.2943H144.083C145.831 28.6383 146.98 30.7359 146.98 33.0847Z"
    fill="#CCD3DE"
  />
  <path
    d="M137.141 33.4866C136.791 33.4866 136.492 33.1851 136.492 32.8334V30.6856C136.492 30.3401 136.791 30.0387 137.141 30.0387C137.49 30.0387 137.79 30.3401 137.79 30.6856V32.8334C137.79 33.1851 137.49 33.4866 137.141 33.4866Z"
    fill="#989FB0"
  />
  <path
    d="M142.385 33.4866C142.035 33.4866 141.736 33.1851 141.736 32.8334V30.6856C141.736 30.3401 142.035 30.0387 142.385 30.0387C142.734 30.0387 143.034 30.3401 143.034 30.6856V32.8334C143.034 33.1851 142.734 33.4866 142.385 33.4866Z"
    fill="#989FB0"
  />
  <path
    d="M140.387 36.5828H139.089C138.789 36.5828 138.49 36.3316 138.49 35.9799V35.333C138.49 34.6359 139.038 34.0833 139.738 34.0833C140.437 34.0833 140.987 34.6359 140.987 35.333V35.9799C140.987 36.2813 140.737 36.5828 140.387 36.5828Z"
    fill="#989FB0"
  />
  <path
    d="M131.297 25.0459C131.767 25.0459 132.147 24.6628 132.147 24.1981C132.147 23.7271 131.767 23.344 131.297 23.344C130.829 23.344 130.449 23.7271 130.449 24.1981C130.449 24.6628 130.829 25.0459 131.297 25.0459Z"
    fill="#C5CDD9"
  />
  <path
    d="M148.528 25.0459C148.996 25.0459 149.377 24.6628 149.377 24.1981C149.377 23.7271 148.996 23.344 148.528 23.344C148.059 23.344 147.679 23.7271 147.679 24.1981C147.679 24.6628 148.059 25.0459 148.528 25.0459Z"
    fill="#C5CDD9"
  />
  <path
    d="M131.297 43.6731C131.767 43.6731 132.147 43.2963 132.147 42.8253C132.147 42.3542 131.767 41.9774 131.297 41.9774C130.829 41.9774 130.449 42.3542 130.449 42.8253C130.449 43.2963 130.829 43.6731 131.297 43.6731Z"
    fill="#C5CDD9"
  />
  <path
    d="M148.528 43.6731C148.996 43.6731 149.377 43.2963 149.377 42.8253C149.377 42.3542 148.996 41.9774 148.528 41.9774C148.059 41.9774 147.679 42.3542 147.679 42.8253C147.679 43.2963 148.059 43.6731 148.528 43.6731Z"
    fill="#C5CDD9"
  />
  <path
    d="M124.751 54.6424V47.1249H125.857H124.751C124.751 46.2767 124.442 45.5494 123.824 44.9432C123.204 44.3348 122.462 44.0306 121.599 44.0306V42.9246V44.0306H120.161V42.9246V44.0306C119.355 44.0306 118.653 44.3154 118.055 44.8849C117.455 45.4574 117.123 46.1575 117.061 46.9853L115.958 46.9024L117.062 46.9708C117.011 47.7979 116.934 49.3463 116.83 51.6161C116.54 57.9983 116.227 63.148 115.892 67.0653C115.3 73.9954 114.474 80.0363 113.414 85.188C110.395 99.8713 105.374 107.859 98.3515 109.152L98.1513 108.064L98.354 109.151C89.2886 110.841 80.679 111.09 72.5251 109.899C65.0372 108.805 58.5678 106.611 53.117 103.315L53.1149 103.314C51.6314 102.413 50.871 101.493 50.8335 100.554C50.7941 99.565 51.4541 98.7647 52.8134 98.1528C53.6486 97.7768 54.8945 97.4087 56.5511 97.0485C57.5248 96.8367 59.1453 96.5305 61.4126 96.1299C63.6253 95.7389 65.2709 95.4315 66.3493 95.2078L66.3806 95.2018C66.2932 95.2173 66.2184 95.2718 66.1563 95.3651C66.109 95.4361 66.0893 95.5067 66.0973 95.5768C66.1041 95.6375 66.1327 95.6929 66.1831 95.743C66.2521 95.8117 66.3272 95.846 66.4084 95.846V94.74V95.846H36.2134C36.1772 95.846 36.1411 95.8443 36.105 95.8407C36.069 95.8372 36.0332 95.8318 35.9977 95.8248C35.9621 95.8177 35.927 95.8089 35.8924 95.7984C35.8577 95.7879 35.8237 95.7757 35.7902 95.7619C35.7567 95.748 35.724 95.7325 35.6921 95.7155C35.6601 95.6984 35.6291 95.6798 35.599 95.6596C35.5689 95.6395 35.5398 95.618 35.5118 95.595C35.4838 95.572 35.457 95.5477 35.4314 95.5221C35.4058 95.4965 35.3815 95.4697 35.3585 95.4417C35.3355 95.4137 35.3139 95.3846 35.2938 95.3545C35.2737 95.3244 35.2551 95.2933 35.238 95.2614C35.2209 95.2294 35.2055 95.1967 35.1916 95.1633C35.1778 95.1298 35.1656 95.0957 35.155 95.0611C35.1445 95.0264 35.1357 94.9913 35.1287 94.9558C35.1216 94.9203 35.1163 94.8845 35.1127 94.8484C35.1092 94.8124 35.1074 94.7762 35.1074 94.74C35.1074 94.7038 35.1092 94.6677 35.1127 94.6316C35.1163 94.5956 35.1216 94.5598 35.1287 94.5242C35.1357 94.4887 35.1445 94.4536 35.155 94.4189C35.1656 94.3843 35.1778 94.3502 35.1916 94.3168C35.2055 94.2833 35.2209 94.2506 35.238 94.2187C35.2551 94.1867 35.2737 94.1557 35.2938 94.1256C35.3139 94.0954 35.3355 94.0664 35.3585 94.0384C35.3815 94.0104 35.4058 93.9836 35.4314 93.958C35.457 93.9323 35.4838 93.908 35.5118 93.8851C35.5398 93.8621 35.5689 93.8405 35.599 93.8204C35.6291 93.8003 35.6601 93.7817 35.6921 93.7646C35.724 93.7475 35.7567 93.732 35.7902 93.7182C35.8237 93.7043 35.8577 93.6921 35.8924 93.6816C35.927 93.6711 35.9621 93.6623 35.9977 93.6552C36.0332 93.6482 36.069 93.6429 36.105 93.6393C36.1411 93.6358 36.1772 93.634 36.2134 93.634H66.4084C66.9358 93.634 67.3808 93.8143 67.7432 94.1747C68.06 94.49 68.2441 94.8747 68.2953 95.3288C68.3478 95.7934 68.2485 96.2142 67.9975 96.5911C67.7104 97.0222 67.3003 97.2852 66.7672 97.3798L66.5739 96.2908L66.7985 97.3738C65.6986 97.6019 64.0317 97.9134 61.7976 98.3082C59.5586 98.7039 57.9664 99.0045 57.021 99.21C55.5156 99.5374 54.4157 99.8573 53.7214 100.17C53.3987 100.315 53.1743 100.45 53.0483 100.573C53.0329 100.588 53.0212 100.601 53.0134 100.612C53.0138 100.611 53.0154 100.608 53.0184 100.602C53.0374 100.561 53.0458 100.516 53.0438 100.466C53.043 100.446 53.0406 100.429 53.0365 100.414L53.0403 100.421C53.066 100.472 53.1143 100.535 53.1851 100.612C53.4057 100.85 53.7652 101.121 54.2636 101.424L53.6892 102.369L54.2615 101.422C59.4573 104.563 65.6517 106.66 72.8449 107.71C80.7563 108.866 89.1242 108.622 97.9487 106.977L97.9511 106.976C101.142 106.389 103.894 104.013 106.208 99.8472C108.254 96.164 109.934 91.1291 111.247 84.7425C112.289 79.6757 113.103 73.7205 113.688 66.8768C114.021 62.9888 114.332 57.8684 114.621 51.5156C114.724 49.2336 114.802 47.6731 114.854 46.834L114.855 46.8195C114.96 45.426 115.518 44.2474 116.53 43.2835C117.554 42.3069 118.765 41.8186 120.161 41.8186H121.599C123.065 41.8186 124.323 42.3339 125.373 43.3644C126.433 44.4042 126.962 45.6577 126.962 47.1249V54.6424C126.962 54.6786 126.961 54.7147 126.958 54.7508C126.954 54.7869 126.948 54.8226 126.942 54.8582C126.935 54.8937 126.926 54.9288 126.915 54.9634C126.904 54.9981 126.892 55.0321 126.878 55.0656C126.865 55.0991 126.849 55.1318 126.832 55.1637C126.815 55.1957 126.796 55.2267 126.776 55.2568C126.756 55.287 126.735 55.316 126.711 55.344C126.689 55.3721 126.665 55.3988 126.639 55.4244C126.613 55.4501 126.586 55.4744 126.558 55.4973C126.531 55.5203 126.502 55.5419 126.471 55.562C126.441 55.5821 126.41 55.6007 126.378 55.6178C126.346 55.6349 126.314 55.6504 126.28 55.6642C126.246 55.6781 126.212 55.6903 126.178 55.7008C126.143 55.7113 126.108 55.7201 126.072 55.7271C126.037 55.7342 126.001 55.7395 125.965 55.7431C125.929 55.7466 125.893 55.7484 125.857 55.7484C125.821 55.7484 125.784 55.7466 125.748 55.7431C125.712 55.7395 125.676 55.7342 125.641 55.7271C125.605 55.7201 125.57 55.7113 125.535 55.7008C125.501 55.6903 125.467 55.6781 125.433 55.6642C125.4 55.6504 125.367 55.6349 125.335 55.6178C125.303 55.6007 125.272 55.5821 125.242 55.562C125.212 55.5419 125.183 55.5203 125.155 55.4973C125.127 55.4744 125.1 55.4501 125.074 55.4244C125.049 55.3988 125.025 55.3721 125.002 55.344C124.979 55.316 124.957 55.287 124.937 55.2568C124.917 55.2267 124.898 55.1957 124.881 55.1637C124.864 55.1318 124.849 55.0991 124.835 55.0656C124.821 55.0321 124.809 54.9981 124.798 54.9634C124.788 54.9288 124.779 54.8937 124.772 54.8582C124.765 54.8226 124.76 54.7869 124.756 54.7508C124.753 54.7147 124.751 54.6786 124.751 54.6424Z"
    fill="#AAB2C2"
  />
  <path
    d="M123.258 66.8074C122.705 66.8074 122.263 66.3693 122.263 65.813V61.9465C122.263 61.3901 122.705 60.9451 123.258 60.9451C123.811 60.9451 124.253 61.3901 124.253 61.9465V65.813C124.253 66.4249 123.811 66.8074 123.258 66.8074Z"
    fill="#989FB0"
  />
  <path
    d="M128.401 66.8074C127.848 66.8074 127.405 66.3693 127.405 65.813V61.9465C127.405 61.3901 127.848 60.9451 128.401 60.9451C128.954 60.9451 129.396 61.3901 129.396 61.9465V65.813C129.396 66.4249 128.954 66.8074 128.401 66.8074Z"
    fill="#989FB0"
  />
  <path
    d="M131 61.9953H120.825V60.834C120.825 58.0176 123.092 53.1497 125.912 53.1497C128.733 53.1497 131 58.0176 131 60.834V61.9953Z"
    fill="#989FB0"
  />
  <g filter="url(#9za75ol8x__filter0_d_10003_263440)">
    <path
      d="M85.6257 95.5412C77.0786 95.5412 68.6406 95.6296 63.5778 95.6296C58.515 95.6296 50.0771 95.5412 41.9918 95.5412C49.0566 91.4851 51.5495 84.0108 51.8617 79.0204H75.5484C76.1712 83.9045 78.6649 91.4851 85.6257 95.5412Z"
      fill="url(#9za75ol8x__paint0_linear_10003_263440)"
    />
    <path
      d="M85.6257 95.5412C77.0786 95.5412 68.6406 95.6296 63.5778 95.6296C58.515 95.6296 50.0771 95.5412 41.9918 95.5412C49.0566 91.4851 51.5495 84.0108 51.8617 79.0204H75.5484C76.1712 83.9045 78.6649 91.4851 85.6257 95.5412Z"
      fill="url(#9za75ol8x__paint1_linear_10003_263440)"
    />
  </g>
  <g filter="url(#9za75ol8x__filter1_d_10003_263440)">
    <path
      d="M108.585 18.6965V80.7236C108.585 82.2807 107.338 83.4201 105.988 83.4201H22.1492C20.6947 83.4201 19.5522 82.1744 19.5522 80.7236V18.6965C19.5522 17.2457 20.7987 16 22.1492 16H105.884C107.442 16 108.585 17.2457 108.585 18.6965Z"
      fill="#fff"
    />
  </g>
  <path
    d="M108.721 21.3989V72.0031H19.2786V21.3989C19.2786 20.0242 20.5308 18.8439 21.8875 18.8439H106.008C107.573 18.8439 108.721 20.0242 108.721 21.3989Z"
    fill="#989FB0"
  />
  <path
    d="M108.721 21.3989V72.0031H19.2786V21.3989C19.2786 20.0242 20.5308 18.8439 21.8875 18.8439H106.008C107.573 18.8439 108.721 20.0242 108.721 21.3989Z"
    fill="url(#9za75ol8x__paint2_linear_10003_263440)"
  />
  <path d="M23.1081 22.361V68.7049H104.892V22.361H23.1081Z" fill="#fff" />
  <path d="M23.1081 22.361V68.7049H104.892V22.361H23.1081Z" fill="url(#9za75ol8x__paint3_linear_10003_263440)" />
  <path
    d="M63.9126 79.7212C65.1591 79.7212 66.0941 78.7869 66.0941 77.5412C66.0941 76.2955 65.1591 75.3612 63.9126 75.3612C62.6661 75.3612 61.7311 76.2955 61.7311 77.5412C61.7311 78.7869 62.6661 79.7212 63.9126 79.7212Z"
    fill="#D0D8E6"
  />
  <g clip-path="url(#9za75ol8x__clip0_10003_263440)">
    <path
      d="M84.5676 39.3827C72.9961 28.6799 54.9991 28.6838 43.4321 39.3827C42.9971 39.7851 42.9886 40.4663 43.4093 40.8836L45.6456 43.1023C46.0466 43.5007 46.6919 43.5092 47.1086 43.1271C56.6391 34.3961 71.3594 34.3941 80.8918 43.1271C81.3085 43.5092 81.9538 43.5001 82.3548 43.1023L84.5912 40.8836C85.0111 40.4663 85.0026 39.7851 84.5676 39.3827ZM63.9999 52.2573C61.6911 52.2573 59.8198 54.1285 59.8198 56.4373C59.8198 58.7461 61.6911 60.6174 63.9999 60.6174C66.3087 60.6174 68.1799 58.7461 68.1799 56.4373C68.1799 54.1285 66.3087 52.2573 63.9999 52.2573ZM77.2369 46.7977C69.7089 40.1404 58.2824 40.1476 50.7629 46.7977C50.3122 47.1962 50.2978 47.8878 50.7256 48.3097L52.975 50.5297C53.3669 50.9164 53.9978 50.9425 54.4152 50.582C59.8982 45.8422 68.114 45.8527 73.5839 50.582C74.0013 50.9425 74.6322 50.917 75.0241 50.5297L77.2735 48.3097C77.7019 47.8878 77.6869 47.1955 77.2369 46.7977V46.7977Z"
      fill="#CFD6E3"
    />
  </g>
  <path
    d="M84.5145 57.0034C84.3589 57.6648 84.1254 58.3652 83.8531 58.9488C83.1138 60.3883 81.9466 61.5167 80.5071 62.2559C79.0286 62.9951 77.2777 63.3064 75.5269 62.9173C71.4027 62.0614 68.757 58.015 69.613 53.8908C70.4689 49.7666 74.4764 47.082 78.6006 47.9769C80.0791 48.2882 81.363 49.0274 82.4524 50.039C84.2811 51.8676 85.0592 54.5133 84.5145 57.0034Z"
    fill="url(#9za75ol8x__paint4_linear_10003_263440)"
  />
  <path
    d="M80.4705 57.3762L78.5411 55.4468L80.4705 53.5174C80.8564 53.1315 80.8992 52.4884 80.4705 52.0596C80.0846 51.6738 79.4415 51.6309 79.0127 52.0596L77.0833 53.989L75.1539 52.0596C74.768 51.6738 74.1249 51.6309 73.6962 52.0596C73.2674 52.4884 73.2674 53.0887 73.6962 53.5174L75.6255 55.4468L73.6962 57.3762C73.3103 57.7621 73.2674 58.4052 73.6962 58.834C74.082 59.2198 74.7252 59.2627 75.1539 58.834L77.0833 56.9046L79.0127 58.834C79.3986 59.2198 80.0417 59.2627 80.4705 58.834C80.8992 58.4052 80.8564 57.7621 80.4705 57.3762Z"
    fill="#fff"
  />
  <defs>
    <linearGradient
      id="9za75ol8x__paint0_linear_10003_263440"
      x1="63.8175"
      y1="95.0779"
      x2="63.8175"
      y2="80.2889"
      gradientUnits="userSpaceOnUse"
    >
      <stop stop-color="#E8ECF5" />
      <stop offset=".9913" stop-color="#BDC4D7" />
    </linearGradient>
    <linearGradient
      id="9za75ol8x__paint1_linear_10003_263440"
      x1="59.124"
      y1="77.3677"
      x2="60.6593"
      y2="89.3388"
      gradientUnits="userSpaceOnUse"
    >
      <stop stop-color="#CAD5E0" />
      <stop offset="1" stop-color="#ABB4C7" />
    </linearGradient>
    <linearGradient
      id="9za75ol8x__paint2_linear_10003_263440"
      x1="19.2382"
      y1="46.831"
      x2="108.737"
      y2="46.831"
      gradientUnits="userSpaceOnUse"
    >
      <stop stop-color="#B0BACC" />
      <stop offset="1" stop-color="#969EAE" />
    </linearGradient>
    <linearGradient
      id="9za75ol8x__paint3_linear_10003_263440"
      x1="63.974"
      y1="21.2874"
      x2="63.974"
      y2="69.2035"
      gradientUnits="userSpaceOnUse"
    >
      <stop stop-color="#FDFEFF" />
      <stop offset=".9964" stop-color="#EBF0F5" />
    </linearGradient>
    <linearGradient
      id="9za75ol8x__paint4_linear_10003_263440"
      x1="69.4453"
      y1="55.4467"
      x2="84.688"
      y2="55.4467"
      gradientUnits="userSpaceOnUse"
    >
      <stop stop-color="#B0BACC" />
      <stop offset="1" stop-color="#969EAE" />
    </linearGradient>
    <filter
      id="9za75ol8x__filter0_d_10003_263440"
      x="31.9918"
      y="73.0204"
      width="63.6339"
      height="36.6091"
      filterUnits="userSpaceOnUse"
      color-interpolation-filters="sRGB"
    >
      <feFlood flood-opacity="0" result="BackgroundImageFix" />
      <feColorMatrix in="SourceAlpha" values="0 0 0 0 0 0 0 0 0 0 0 0 0 0 0 0 0 0 127 0" result="hardAlpha" />
      <feOffset dy="4" />
      <feGaussianBlur stdDeviation="5" />
      <feComposite in2="hardAlpha" operator="out" />
      <feColorMatrix values="0 0 0 0 0.396078 0 0 0 0 0.478431 0 0 0 0 0.576471 0 0 0 0.24 0" />
      <feBlend in2="BackgroundImageFix" result="effect1_dropShadow_10003_263440" />
      <feBlend in="SourceGraphic" in2="effect1_dropShadow_10003_263440" result="shape" />
    </filter>
    <filter
      id="9za75ol8x__filter1_d_10003_263440"
      x="9.55225"
      y="16"
      width="109.032"
      height="87.4202"
      filterUnits="userSpaceOnUse"
      color-interpolation-filters="sRGB"
    >
      <feFlood flood-opacity="0" result="BackgroundImageFix" />
      <feColorMatrix in="SourceAlpha" values="0 0 0 0 0 0 0 0 0 0 0 0 0 0 0 0 0 0 127 0" result="hardAlpha" />
      <feOffset dy="10" />
      <feGaussianBlur stdDeviation="5" />
      <feComposite in2="hardAlpha" operator="out" />
      <feColorMatrix values="0 0 0 0 0.396078 0 0 0 0 0.478431 0 0 0 0 0.576471 0 0 0 0.24 0" />
      <feBlend in2="BackgroundImageFix" result="effect1_dropShadow_10003_263440" />
      <feBlend in="SourceGraphic" in2="effect1_dropShadow_10003_263440" result="shape" />
    </filter>
    <clipPath id="9za75ol8x__clip0_10003_263440">
      <path fill="#fff" transform="translate(43.0997 25.087)" d="M0 0H41.8004V41.8004H0z" />
    </clipPath>
  </defs>
</svg>
