<svg fill="none" xmlns="http://www.w3.org/2000/svg" viewBox="0 0 160 120" class="design-iconfont">
    <path
        d="M140.969 58.2674C134.715 53.7812 127.226 51.6058 120.326 48.357C113.692 45.2324 108.975 40.2038 103.039 36.0678C93.3433 29.3046 82.1342 24.2307 70.7267 21.1344C59.1945 18.0042 45.0995 16.2696 34.5878 23.208C29.417 26.6207 25.2101 31.915 23.4922 37.8928C21.4511 45.0064 23.4468 52.2726 24.4277 59.3805C25.2214 65.155 21.5021 68.3417 17.1194 71.6244C6.85719 79.3087 3.27827 91.9259 18.1389 101.768C32.9996 111.609 124.572 111.659 139.461 101.297C154.35 90.9338 156.884 69.6977 140.969 58.2674Z"
        fill="#F0F3FA"
    />
    <path
        d="M40.8174 22.1742H114.585C117.552 22.1742 119.803 24.42 119.803 27.3804V74.032C119.803 76.9924 117.552 79.2382 114.585 79.2382H40.8174C37.8503 79.2382 35.5994 76.9924 35.5994 74.032V27.3804C35.5994 24.42 38.0549 22.1742 40.8174 22.1742Z"
        fill="url(#2ap4udnhz__paint0_linear_10003_263179)"
    />
    <path
        d="M143.436 12.7346C142.904 12.6179 142.369 12.5086 141.831 12.4067L142.148 10.7356C142.701 10.8404 143.252 10.953 143.8 11.0732L143.436 12.7346ZM138.593 11.8873C137.51 11.7448 136.423 11.6322 135.329 11.5495L135.458 9.85349C136.582 9.93849 137.701 10.0543 138.815 10.201L138.593 11.8873ZM132.052 11.3923C130.959 11.3699 129.865 11.3774 128.772 11.4149L128.713 9.71501C129.838 9.67647 130.962 9.66872 132.087 9.69177L132.052 11.3923ZM125.497 11.6171C124.406 11.7147 123.319 11.8421 122.239 11.9993L121.994 10.3162C123.106 10.1544 124.223 10.0234 125.346 9.92298L125.497 11.6171ZM119.008 12.5623C117.932 12.781 116.868 13.0293 115.814 13.3072L115.381 11.6625C116.465 11.3764 117.561 11.1207 118.669 10.8955L119.008 12.5623ZM112.705 14.2521C111.566 14.6627 110.624 15.1105 109.88 15.5953L108.952 14.1703C109.806 13.6134 110.865 13.1074 112.128 12.652L112.705 14.2521ZM107.721 17.6474C107.159 18.4621 106.769 19.3749 106.551 20.3858L104.889 20.0277C105.154 18.7968 105.631 17.6813 106.321 16.6813L107.721 17.6474ZM106.49 23.364C106.52 23.5295 106.555 23.6927 106.597 23.8535C106.801 24.6455 107.14 25.3919 107.616 26.0928L106.209 27.0484C105.622 26.1841 105.202 25.2603 104.95 24.2771C104.898 24.0765 104.854 23.8731 104.816 23.6672L106.49 23.364ZM109.737 28.1832C110.562 28.7273 111.448 29.0888 112.395 29.2679L112.423 29.2732L112.451 29.2806C112.479 29.2878 112.507 29.2947 112.535 29.3014L112.14 30.9559C112.101 30.9464 112.061 30.9366 112.022 30.9264L112.237 30.1035L112.079 30.9391C110.909 30.7178 109.816 30.2726 108.801 29.6034L109.737 28.1832ZM115.31 29.1007C116.07 28.8117 116.66 28.3825 117.08 27.8131L117.765 28.3176L117.051 27.8541C117.139 27.7187 117.217 27.5747 117.286 27.4222L118.839 28.116C118.734 28.3496 118.614 28.5712 118.478 28.7811L118.464 28.802L118.449 28.8221C117.832 29.6602 116.987 30.283 115.915 30.6906L115.31 29.1007ZM117.462 24.7216C117.296 24.0861 117.015 23.5454 116.619 23.0995L116.604 23.083L116.59 23.0658C116.4 22.8276 116.186 22.6089 115.949 22.4095L117.045 21.1087C117.367 21.3799 117.658 21.6781 117.918 22.0033L117.254 22.5345L117.89 21.9695C118.467 22.6191 118.873 23.3934 119.108 24.2926L117.462 24.7216ZM113.345 21.2123C112.8 21.1058 112.244 21.0644 111.677 21.088C111.25 21.1058 110.809 21.157 110.356 21.2414L110.044 19.5694C110.577 19.47 111.098 19.4098 111.606 19.3886C112.306 19.3594 112.995 19.4109 113.671 19.5429L113.345 21.2123ZM107.377 22.1943C106.981 22.3685 106.578 22.5629 106.168 22.7776C105.634 23.0683 105.105 23.3832 104.581 23.7222L103.657 22.2945C104.217 21.932 104.79 21.5908 105.379 21.2709C105.823 21.0383 106.26 20.8271 106.692 20.6374L107.377 22.1943ZM101.998 25.6415C101.178 26.3351 100.404 27.0783 99.6751 27.8712L98.4231 26.7199C99.2001 25.8749 100.025 25.0826 100.899 24.3433L101.998 25.6415ZM97.6476 30.3731C97.0211 31.254 96.4564 32.1658 95.9537 33.1084L94.4529 32.308C94.9899 31.3011 95.5928 30.3275 96.2616 29.3873L97.6476 30.3731ZM94.6333 36.0363C94.4642 36.4907 94.31 36.9481 94.1706 37.4085C93.9917 37.9753 93.8343 38.5461 93.6984 39.1209L92.0432 38.7297C92.1887 38.1141 92.3552 37.5095 92.5427 36.9158C92.6923 36.4215 92.8578 35.9306 93.0393 35.443L94.6333 36.0363ZM93.167 42.2901C93.0593 43.3557 93.0203 44.4275 93.05 45.5053L91.3498 45.5522C91.318 44.4016 91.3597 43.2571 91.4747 42.119L93.167 42.2901ZM93.3426 48.7103C93.5081 49.7738 93.7397 50.8212 94.0374 51.8527L92.4032 52.3244C92.0855 51.2239 91.8384 50.1063 91.662 48.9717L93.3426 48.7103ZM95.1255 54.8798C95.3397 55.3731 95.5691 55.8576 95.8138 56.3335L94.3013 57.1114C94.0395 56.6025 93.7942 56.0844 93.5653 55.5571L95.1255 54.8798Z"
        fill="#D5DDEA"
    />
    <path
        d="M148.721 9.69278C148.636 10.9685 148.551 12.1591 147.615 12.4142C146.68 12.6693 146.254 11.8189 145.659 10.6283C145.064 9.52269 145.404 8.33206 146.424 8.07693C147.36 7.82179 148.891 8.16197 148.721 9.69278Z"
        fill="#DAE2EB"
    />
    <path
        d="M147.7 15.816C147.955 14.2852 148.21 13.4348 147.36 13.0095C146.424 12.5843 145.829 13.3497 144.809 14.3702C143.958 15.3057 144.468 16.6664 145.319 17.0917C146.339 17.6019 147.445 17.0917 147.7 15.816Z"
        fill="#DAE2EB"
    />
    <path
        d="M148.891 13.0095C148.806 13.6048 148.381 14.0301 147.785 14.1151C147.53 14.1151 147.275 14.1151 146.935 14.1151C145.744 13.945 144.809 13.1796 144.894 12.4142C144.979 11.6488 146.084 11.2236 147.445 11.3937C147.7 11.3937 147.955 11.4787 148.126 11.5638C148.636 11.7339 148.976 12.3292 148.891 13.0095C148.891 12.9245 148.891 13.0095 148.891 13.0095Z"
        fill="#989FB0"
    />
    <path
        d="M17.0284 27.4412C17.0284 25.9954 17.0284 24.5497 18.0489 24.1244C19.1545 23.6992 19.7498 24.7197 20.6003 26.1655C21.3657 27.4412 21.0255 28.8019 19.9199 29.2271C18.9844 29.6523 17.0284 29.3972 17.0284 27.4412Z"
        fill="#DAE2EB"
    />
    <path
        d="M17.6236 20.2972C17.4535 22.0832 17.1984 23.1037 18.304 23.5289C19.4095 23.9541 20.0048 23.0186 21.1104 21.6579C21.9609 20.4673 21.3656 18.9365 20.26 18.5113C19.1544 18.086 17.7937 18.8515 17.6236 20.2972Z"
        fill="#DAE2EB"
    />
    <path
        d="M16.6884 23.6991C16.6884 23.0187 17.1986 22.5084 17.7939 22.4234C18.0491 22.3384 18.3892 22.3384 18.7294 22.4234C20.0901 22.5084 21.2808 23.2738 21.1957 24.1243C21.1107 24.9747 20.0051 25.5701 18.5593 25.4C18.3042 25.4 18.0491 25.3149 17.7939 25.2299C17.1136 25.1448 16.6884 24.4645 16.6884 23.6991Z"
        fill="#989FB0"
    />
    <path
        d="M47.3044 48.2035C47.2972 47.6614 47.2764 47.1274 47.242 46.6012L48.9393 46.4904C48.9756 47.0459 48.9975 47.6093 49.0052 48.1807L47.3044 48.2035ZM46.8543 43.4348C46.6588 42.3692 46.4001 41.3426 46.0784 40.3549L47.6957 39.8282C48.0409 40.8878 48.3181 41.9876 48.5273 43.1277L46.8543 43.4348ZM44.8819 37.4252C44.4095 36.4779 43.8692 35.5765 43.261 34.7207L44.6474 33.7354C45.3067 34.663 45.8922 35.6399 46.404 36.666L44.8819 37.4252ZM41.2348 32.2945C40.5059 31.547 39.7153 30.8484 38.8631 30.1985L39.8944 28.846C40.8128 29.5463 41.6655 30.2999 42.4525 31.107L41.2348 32.2945ZM36.2164 28.4517C35.3056 27.933 34.3501 27.4647 33.3501 27.0465L34.0063 25.4773C35.0699 25.922 36.0872 26.4208 37.058 26.9736L36.2164 28.4517ZM30.3387 25.9823C29.3125 25.6819 28.272 25.4371 27.2172 25.2477L27.5177 23.5736C28.6324 23.7737 29.732 24.0324 30.8165 24.3499L30.3387 25.9823ZM24.0555 24.8579C23.5136 24.8225 22.9855 24.8048 22.4713 24.8048V23.1039C23.0225 23.1039 23.5876 23.1228 24.1665 23.1607L24.0555 24.8579Z"
        fill="#D5DDEA"
    />
    <g filter="url(#2ap4udnhz__filter0_d_10003_263179)">
        <path
        d="M125.532 32.1783H94.4286C91.3593 32.1783 88.4945 33.1991 86.1413 35.1386L77.9563 41.774C75.7054 43.6115 72.7384 44.7344 69.669 44.7344H34.4735C30.8926 44.7344 28.0278 47.6948 28.0278 51.1656C28.0278 51.4718 28.0278 51.7781 28.1301 52.0843L34.5758 86.4861C35.0874 89.7527 37.8498 92.1006 41.0215 92.1006H116.323C119.597 92.1006 122.258 89.8548 122.769 86.5881L131.875 39.5282C132.489 35.9553 130.136 32.7907 126.555 32.0762C126.248 32.1783 125.839 32.1783 125.532 32.1783Z"
        fill="url(#2ap4udnhz__paint1_linear_10003_263179)"
        />
    </g>
    <path
        d="M114.789 39.222H90.8475C88.4944 39.222 86.2435 40.0387 84.5042 41.4679L78.2631 46.572C76.5238 48.0011 74.2729 48.8178 71.9197 48.8178H44.9092C42.1468 48.8178 39.8959 51.0636 39.8959 53.8198C39.8959 54.024 39.8959 54.3302 39.9982 54.5344L45.0116 80.8716C45.4208 83.3216 47.4671 85.1591 50.0249 85.1591H107.831C110.287 85.1591 112.435 83.4237 112.845 80.9737L119.802 44.9387C120.314 42.1824 118.472 39.7325 115.709 39.222C115.3 39.222 114.993 39.222 114.789 39.222Z"
        fill="url(#2ap4udnhz__paint2_linear_10003_263179)"
    />
    <g filter="url(#2ap4udnhz__filter1_d_10003_263179)">
        <path
        fill-rule="evenodd"
        clip-rule="evenodd"
        d="M67.1093 50.7687C66.743 51.135 66.2546 51.6234 65.8894 52.2328L67.4745 54.062C67.7187 54.3062 68.3281 54.4272 68.6944 54.3051C68.9374 54.3062 69.1816 54.062 69.3037 53.9399L70.1573 53.0863C70.5236 52.72 70.89 52.3537 71.3772 52.1107C71.9877 51.7444 72.7192 51.5013 73.3286 51.378C73.9391 51.2559 74.4264 51.2571 74.9148 51.2571C75.4021 51.2559 75.7684 51.378 76.2568 51.6222C76.622 51.7455 76.865 51.9886 77.2313 52.3549C77.4767 52.8421 77.7197 53.3294 77.8418 53.6957C78.0861 54.4283 78.207 55.0377 77.9639 55.7692C77.7197 56.5018 77.4767 56.9891 77.1092 57.5985C76.7441 58.2078 76.3777 58.8183 75.8905 59.3056C75.5242 59.9161 75.1579 60.2824 74.7927 60.8918C74.5485 61.3802 74.3054 61.8675 74.1833 62.478C74.1822 62.9653 74.1822 63.6979 74.4275 64.1852L75.6463 67.3553L79.0606 66.3808L78.6954 63.3316C78.6954 62.8432 78.8175 62.4769 79.0606 61.9896C79.4269 61.3791 79.6711 60.893 80.0374 60.5267L81.2573 59.0626C81.7446 58.5753 82.1109 57.9648 82.354 57.2333C82.7203 56.3786 82.8424 55.7703 82.9645 54.9156C82.9633 53.9399 82.8424 53.0863 82.5982 52.1095C82.354 51.135 81.8667 50.1593 81.2562 49.3046C80.6468 48.6952 79.9153 47.9637 79.0606 47.5974C78.0861 47.109 77.1104 46.8659 76.1335 46.8659C75.0369 46.7438 73.938 46.8659 72.8413 47.2322C72.1098 47.4753 71.3772 47.7195 70.5236 48.0847C69.9131 48.451 69.1828 48.9394 68.5723 49.3057L67.1093 50.7687ZM75.6463 73.2117C75.6463 73.6978 75.6463 74.1862 75.7684 74.5525C75.8905 74.9189 76.0114 75.284 76.2556 75.5282C76.3777 75.8945 76.7441 76.2609 77.1092 76.3818C77.3534 76.626 77.8418 76.626 78.2082 76.7481C78.6954 76.747 79.1827 76.7481 79.549 76.626C80.2816 76.3818 81.0131 75.8945 81.5015 75.1619C82.3539 73.5769 81.9888 71.7464 80.4026 70.8929C80.0374 70.7719 79.6711 70.6498 79.3048 70.5277C78.8175 70.5266 78.3303 70.5277 77.9639 70.6498C77.1104 70.7708 76.4998 71.3813 76.0126 72.1128C75.7684 72.357 75.7684 72.8454 75.6463 73.2117Z"
        fill="#D5DDEA"
        />
    </g>
    <g filter="url(#2ap4udnhz__filter2_d_10003_263179)">
        <path d="M110.965 89.3583L94.5424 72.9499L98.3074 69.1792L114.717 85.604L110.965 89.3583Z" fill="#858B9B" />
        <path
        d="M116.674 95.1294L104.081 82.5329C103.03 81.4873 103.03 79.7749 104.081 78.721C105.133 77.6672 106.847 77.6672 107.898 78.721L120.49 91.3093C121.542 92.3631 121.542 94.0756 120.49 95.1294C119.439 96.1832 117.725 96.1832 116.674 95.1294Z"
        fill="#858B9B"
        />
        <path
        d="M115.778 95.9361L99.5761 79.7336C99.1999 79.3549 99.1999 78.7457 99.5761 78.3587L103.717 74.2175C104.094 73.8388 104.704 73.8388 105.094 74.2175L121.296 90.42C121.672 90.7905 121.672 91.3998 121.296 91.7949L117.154 95.9361C116.764 96.3066 116.154 96.3066 115.778 95.9361Z"
        fill="url(#2ap4udnhz__paint3_linear_10003_263179)"
        />
        <path
        d="M106.217 51.2127C106.217 67.9129 92.6786 81.4511 75.9784 81.4511C59.2782 81.4511 45.7401 67.9129 45.7401 51.2127C45.7401 34.5125 59.2782 20.9744 75.9784 20.9744C92.6786 20.9744 106.217 34.5125 106.217 51.2127ZM53.2996 51.2127C53.2996 63.7379 63.4533 73.8915 75.9784 73.8915C88.5036 73.8915 98.6572 63.7379 98.6572 51.2127C98.6572 38.6876 88.5036 28.534 75.9784 28.534C63.4533 28.534 53.2996 38.6876 53.2996 51.2127Z"
        fill="url(#2ap4udnhz__paint4_linear_10003_263179)"
        />
    </g>
    <defs>
        <linearGradient
        id="2ap4udnhz__paint0_linear_10003_263179"
        x1="68.6607"
        y1="16.5045"
        x2="77.7082"
        y2="56.186"
        gradientUnits="userSpaceOnUse"
        >
        <stop stop-color="#CAD5E0" />
        <stop offset="1" stop-color="#ABB4C7" />
        </linearGradient>
        <linearGradient
        id="2ap4udnhz__paint1_linear_10003_263179"
        x1="79.9672"
        y1="30.6857"
        x2="79.9672"
        y2="92.7464"
        gradientUnits="userSpaceOnUse"
        >
        <stop stop-color="#FDFEFF" />
        <stop offset=".9964" stop-color="#EBF0F5" />
        </linearGradient>
        <linearGradient
        id="2ap4udnhz__paint2_linear_10003_263179"
        x1="79.8916"
        y1="39.222"
        x2="79.571"
        y2="84.943"
        gradientUnits="userSpaceOnUse"
        >
        <stop stop-color="#fff" />
        <stop offset="1" stop-color="#fff" stop-opacity="0" />
        </linearGradient>
        <linearGradient
        id="2ap4udnhz__paint3_linear_10003_263179"
        x1="99.2839"
        y1="85.0768"
        x2="121.581"
        y2="85.0768"
        gradientUnits="userSpaceOnUse"
        >
        <stop stop-color="#B0BACC" />
        <stop offset="1" stop-color="#969EAE" />
        </linearGradient>
        <linearGradient
        id="2ap4udnhz__paint4_linear_10003_263179"
        x1="45.712"
        y1="51.2247"
        x2="106.228"
        y2="51.2247"
        gradientUnits="userSpaceOnUse"
        >
        <stop stop-color="#B0BACC" />
        <stop offset="1" stop-color="#969EAE" />
        </linearGradient>
        <filter
        id="2ap4udnhz__filter0_d_10003_263179"
        x="16.0278"
        y="32.0762"
        width="127.944"
        height="84.0244"
        filterUnits="userSpaceOnUse"
        color-interpolation-filters="sRGB"
        >
        <feFlood flood-opacity="0" result="BackgroundImageFix" />
        <feColorMatrix in="SourceAlpha" values="0 0 0 0 0 0 0 0 0 0 0 0 0 0 0 0 0 0 127 0" result="hardAlpha" />
        <feOffset dy="12" />
        <feGaussianBlur stdDeviation="6" />
        <feComposite in2="hardAlpha" operator="out" />
        <feColorMatrix values="0 0 0 0 0.396078 0 0 0 0 0.478431 0 0 0 0 0.576471 0 0 0 0.24 0" />
        <feBlend in2="BackgroundImageFix" result="effect1_dropShadow_10003_263179" />
        <feBlend in="SourceGraphic" in2="effect1_dropShadow_10003_263179" result="shape" />
        </filter>
        <filter
        id="2ap4udnhz__filter1_d_10003_263179"
        x="57.8894"
        y="42.8202"
        width="33.0751"
        height="45.928"
        filterUnits="userSpaceOnUse"
        color-interpolation-filters="sRGB"
        >
        <feFlood flood-opacity="0" result="BackgroundImageFix" />
        <feColorMatrix in="SourceAlpha" values="0 0 0 0 0 0 0 0 0 0 0 0 0 0 0 0 0 0 127 0" result="hardAlpha" />
        <feOffset dy="4" />
        <feGaussianBlur stdDeviation="4" />
        <feComposite in2="hardAlpha" operator="out" />
        <feColorMatrix values="0 0 0 0 0.396078 0 0 0 0 0.478431 0 0 0 0 0.576471 0 0 0 0.16 0" />
        <feBlend in2="BackgroundImageFix" result="effect1_dropShadow_10003_263179" />
        <feBlend in="SourceGraphic" in2="effect1_dropShadow_10003_263179" result="shape" />
        </filter>
        <filter
        id="2ap4udnhz__filter2_d_10003_263179"
        x="37.7401"
        y="16.9744"
        width="91.8377"
        height="91.2396"
        filterUnits="userSpaceOnUse"
        color-interpolation-filters="sRGB"
        >
        <feFlood flood-opacity="0" result="BackgroundImageFix" />
        <feColorMatrix in="SourceAlpha" values="0 0 0 0 0 0 0 0 0 0 0 0 0 0 0 0 0 0 127 0" result="hardAlpha" />
        <feOffset dy="4" />
        <feGaussianBlur stdDeviation="4" />
        <feComposite in2="hardAlpha" operator="out" />
        <feColorMatrix values="0 0 0 0 0.396078 0 0 0 0 0.478431 0 0 0 0 0.576471 0 0 0 0.2 0" />
        <feBlend in2="BackgroundImageFix" result="effect1_dropShadow_10003_263179" />
        <feBlend in="SourceGraphic" in2="effect1_dropShadow_10003_263179" result="shape" />
        </filter>
    </defs>
</svg>