<svg fill="none" xmlns="http://www.w3.org/2000/svg" viewBox="0 0 160 120" class="design-iconfont">
  <path
    d="M140.969 58.2675C134.715 53.7813 127.226 51.606 120.326 48.3571C113.692 45.2326 108.975 40.2039 103.039 36.068C93.3433 29.3047 82.1342 24.2308 70.7267 21.1345C59.1945 18.0043 45.0995 16.2697 34.5878 23.2081C29.417 26.6209 25.2101 31.9151 23.4922 37.893C21.4511 45.0065 23.4468 52.2727 24.4277 59.3806C25.2214 65.1551 21.5021 68.3418 17.1194 71.6245C6.85719 79.3088 3.27827 91.926 18.1389 101.768C32.9996 111.609 124.572 111.659 139.461 101.297C154.35 90.9339 156.884 69.6978 140.969 58.2675Z"
    fill="#F0F3FA"
  />
  <path
    d="M140.949 33.5137C143.82 33.5137 146.146 31.194 146.146 28.3165C146.146 25.4517 143.82 23.1193 140.949 23.1193C138.079 23.1193 135.752 25.4517 135.752 28.3165C135.752 31.194 138.079 33.5137 140.949 33.5137Z"
    fill="#EAEEF9"
  />
  <path
    d="M148.509 11.7799C149.814 11.7799 150.871 10.7253 150.871 9.41755C150.871 8.11824 149.814 7.05518 148.509 7.05518C147.204 7.05518 146.146 8.11824 146.146 9.41755C146.146 10.7253 147.204 11.7799 148.509 11.7799Z"
    fill="#EAEEF9"
  />
  <path
    d="M23.303 13.6698C24.8693 13.6698 26.1379 12.4043 26.1379 10.835C26.1379 9.2758 24.8693 8.00012 23.303 8.00012C21.7378 8.00012 20.4682 9.2758 20.4682 10.835C20.4682 12.4043 21.7378 13.6698 23.303 13.6698Z"
    fill="#EAEEF9"
  />
  <path
    d="M9.60126 66.5869C11.9498 66.5869 13.8535 64.6816 13.8535 62.3347C13.8535 59.9877 11.9498 58.0824 9.60126 58.0824C7.25352 58.0824 5.34899 59.9877 5.34899 62.3347C5.34899 64.6816 7.25352 66.5869 9.60126 66.5869Z"
    fill="#EAEEF9"
  />
  <path
    d="M93.1718 18.051C111.346 18.051 126 31.2632 126 47.5178C126 56.8557 121.157 65.2146 113.525 70.6785V82.9221C113.525 84.617 111.588 85.4697 110.377 84.5012L99.9547 76.3739C97.7755 76.7318 95.5952 76.9845 93.2928 76.9845C75.119 76.9845 60.4594 63.7618 60.4594 47.5178C60.4594 31.2632 75.119 18.051 93.1718 18.051Z"
    fill="#CBD4E0"
  />
  <path
    d="M93.1718 18.051C111.346 18.051 126 31.2632 126 47.5178C126 56.8557 121.157 65.2146 113.525 70.6785V82.9221C113.525 84.617 111.588 85.4697 110.377 84.5012L99.9547 76.3739C97.7755 76.7318 95.5952 76.9845 93.2928 76.9845C75.119 76.9845 60.4594 63.7618 60.4594 47.5178C60.4594 31.2632 75.119 18.051 93.1718 18.051Z"
    fill="url(#6lnzqwz2x__paint0_linear_10003_263306)"
  />
  <g filter="url(#6lnzqwz2x__filter0_d_10003_263306)">
    <path
      d="M68.4581 16.5984C48.2241 16.5984 31.8684 31.2633 31.8684 49.3287C31.8684 59.7615 37.3207 69.0995 45.8017 75.0371V88.6177C45.8017 90.4389 47.8609 91.5338 49.3147 90.3126L60.9456 81.3431C63.3691 81.8274 65.7925 82.0695 68.336 82.0695C88.57 82.0695 104.926 67.4046 104.926 49.3287C104.926 31.2633 88.57 16.5984 68.4581 16.5984Z"
      fill="url(#6lnzqwz2x__paint1_linear_10003_263306)"
    />
  </g>
  <path
    d="M59.4454 13.5137C59.2991 13.5137 59.1528 13.5137 59.0064 13.5137C58.2758 13.2294 57.8379 12.4925 57.9842 11.7661L60.4677 3.723C60.7593 2.98607 61.4899 2.55444 62.2205 2.70182C62.9511 2.98607 63.3891 3.723 63.2427 4.44941L60.9056 12.4925C60.7593 13.082 60.175 13.5137 59.4454 13.5137Z"
    fill="#B5BCCE"
  />
  <path
    d="M53.31 15.2717C52.7247 15.2717 52.1404 14.8296 51.8488 14.2506L48.0505 2.70178C47.7588 1.96485 48.1968 1.09107 48.9274 0.796292C49.657 0.50152 50.5339 0.94368 50.8266 1.67008L54.6239 13.2294C54.9166 13.9558 54.4786 14.8296 53.748 15.1243C53.6017 15.2717 53.4553 15.2717 53.31 15.2717Z"
    fill="#B5BCCE"
  />
  <path
    d="M47.6124 18.0509C47.1744 18.0509 46.8818 17.9035 46.5891 17.6087L41.9148 13.0819C41.3306 12.4923 41.3306 11.6185 41.9148 11.029C42.4991 10.45 43.3761 10.45 43.9604 11.029L48.6346 15.5664C49.2189 16.1454 49.2189 17.0297 48.6346 17.6087C48.343 17.9035 47.904 18.0509 47.6124 18.0509Z"
    fill="#B5BCCE"
  />
  <rect x="52.1975" y="45.0582" width="33.2658" height="4.62025" rx="2" fill="#989FB0" />
  <rect x="57.7418" y="57.995" width="22.1772" height="4.62025" rx="2" fill="#989FB0" />
  <defs>
    <linearGradient
      id="6lnzqwz2x__paint0_linear_10003_263306"
      x1="60.4298"
      y1="53.2499"
      x2="126.012"
      y2="53.2499"
      gradientUnits="userSpaceOnUse"
    >
      <stop stop-color="#B0BACC" />
      <stop offset="1" stop-color="#969EAE" />
    </linearGradient>
    <linearGradient
      id="6lnzqwz2x__paint1_linear_10003_263306"
      x1="68.374"
      y1="14.8789"
      x2="68.374"
      y2="91.6282"
      gradientUnits="userSpaceOnUse"
    >
      <stop stop-color="#FDFEFF" />
      <stop offset=".9964" stop-color="#ECF0F5" />
    </linearGradient>
    <filter
      id="6lnzqwz2x__filter0_d_10003_263306"
      x="21.8684"
      y="16.5984"
      width="93.0573"
      height="94.2312"
      filterUnits="userSpaceOnUse"
      color-interpolation-filters="sRGB"
    >
      <feFlood flood-opacity="0" result="BackgroundImageFix" />
      <feColorMatrix in="SourceAlpha" values="0 0 0 0 0 0 0 0 0 0 0 0 0 0 0 0 0 0 127 0" result="hardAlpha" />
      <feOffset dy="10" />
      <feGaussianBlur stdDeviation="5" />
      <feComposite in2="hardAlpha" operator="out" />
      <feColorMatrix values="0 0 0 0 0.396078 0 0 0 0 0.478431 0 0 0 0 0.576471 0 0 0 0.24 0" />
      <feBlend in2="BackgroundImageFix" result="effect1_dropShadow_10003_263306" />
      <feBlend in="SourceGraphic" in2="effect1_dropShadow_10003_263306" result="shape" />
    </filter>
  </defs>
</svg>
