<svg fill="none" xmlns="http://www.w3.org/2000/svg" viewBox="0 0 160 120" class="design-iconfont">
  <path
    d="M140.969 58.2675C134.715 53.7813 127.226 51.606 120.326 48.3571C113.692 45.2326 108.975 40.2039 103.039 36.068C93.3433 29.3047 82.1342 24.2308 70.7267 21.1345C59.1945 18.0043 45.0995 16.2697 34.5878 23.2081C29.417 26.6209 25.2101 31.9151 23.4922 37.893C21.4511 45.0065 23.4468 52.2727 24.4277 59.3806C25.2214 65.1551 21.5021 68.3418 17.1194 71.6245C6.85719 79.3088 3.27827 91.926 18.1389 101.768C32.9996 111.609 124.572 111.659 139.461 101.297C154.35 90.9339 156.884 69.6978 140.969 58.2675Z"
    fill="#F0F3FA"
  />
  <g filter="url(#ecas4kccw__filter0_d_10003_263245)">
    <path
      d="M134.791 67.6148C134.791 78.6366 125.878 87.55 114.76 87.55C114.569 87.55 112.939 87.55 100.959 87.55C92.6209 87.55 79.2988 87.55 58.0219 87.55H47.8626C34.5405 87.8375 23.902 77.199 23.902 64.3562C23.902 51.4175 34.6364 40.6831 48.1501 41.354C59.747 5.12568 112.844 10.2053 117.348 47.6796C127.316 48.9256 134.791 57.3597 134.791 67.6148Z"
      fill="url(#ecas4kccw__paint0_linear_10003_263245)"
    />
  </g>
  <path
    d="M114.76 87.5499C125.782 87.5499 134.791 78.6366 134.791 67.6147C134.791 56.5929 125.782 47.6796 114.76 47.6796C103.739 47.6796 94.7293 56.5929 94.7293 67.6147C94.7293 78.6366 103.739 87.5499 114.76 87.5499Z"
    fill="url(#ecas4kccw__paint1_linear_10003_263245)"
  />
  <path
    d="M82.0784 87.7417C101.726 87.7417 117.732 71.8319 117.732 52.1843C117.732 32.5366 101.726 16.6268 82.0784 16.6268C62.4307 16.6268 46.425 32.5366 46.425 52.1843C46.425 71.8319 62.3349 87.7417 82.0784 87.7417Z"
    fill="url(#ecas4kccw__paint2_linear_10003_263245)"
  />
  <path
    d="M27.6057 20.8521C27.6057 20.8521 14.9319 24.0708 18.7727 26.6459C22.6134 29.094 31.7031 33.3373 40.2805 30.5084C48.8579 27.6795 40.2805 23.69 40.4083 23.69C40.5362 23.69 27.6057 20.8521 27.6057 20.8521Z"
    fill="#CED7E2"
  />
  <path
    d="M12.115 19.8275C16.7246 21.2419 30.9344 18.9208 40.0241 13C47.1943 21.8857 49.8827 24.1977 52.4432 24.4607C48.4745 28.4502 35.2875 34.8877 27.8625 26.5189C19.1564 32.0498 12.115 19.8275 12.115 19.8275Z"
    fill="#EAEEF9"
  />
  <path
    d="M110 55.4536C114.961 55.713 128.41 49.8718 135.722 42C145.124 48.7268 148.257 50.2475 151 49.8718C147.996 54.6933 138.856 65.2307 125.93 66C116.528 60.6597 110 55.4536 110 55.4536Z"
    fill="#DAE2EB"
  />
  <path
    d="M99.6791 78.0528C99.2625 79.8519 98.638 81.5826 97.8749 83.1691C95.8635 86.9039 92.8803 89.9478 89.1347 91.8152C85.2498 93.8192 80.6718 94.51 76.0237 93.6143C65.202 91.3294 58.196 80.8235 60.4854 69.9684C62.774 59.1134 73.2492 52.1297 84.1401 54.407C88.0251 55.242 91.4241 57.1094 94.2679 59.8042C98.9853 64.6396 100.997 71.4866 99.6791 78.0528Z"
    fill="url(#ecas4kccw__paint3_linear_10003_263245)"
  />
  <path
    d="M80.446 62.6204C78.5733 62.6204 77.1163 64.2069 77.2549 66.0742L78.2953 77.2785C78.3646 78.3868 79.3356 79.2825 80.446 79.2825C81.5557 79.2825 82.5267 78.3868 82.5961 77.2785L83.6372 66.0742C83.7758 64.1386 82.3188 62.6204 80.446 62.6204Z"
    fill="#fff"
  />
  <path
    d="M80.4464 81.3546C79.0588 81.3546 77.9491 82.4629 77.9491 83.8444C77.9491 85.226 79.0588 86.3343 80.4464 86.3343C81.8333 86.3343 82.9437 85.226 82.9437 83.8444C82.9437 82.4629 81.8333 81.3546 80.4464 81.3546Z"
    fill="#fff"
  />
  <defs>
    <linearGradient
      id="ecas4kccw__paint0_linear_10003_263245"
      x1="63.3435"
      y1="37.9343"
      x2="68.4687"
      y2="83.3237"
      gradientUnits="userSpaceOnUse"
    >
      <stop stop-color="#FDFEFF" />
      <stop offset=".9964" stop-color="#ECF0F5" />
    </linearGradient>
    <linearGradient
      id="ecas4kccw__paint1_linear_10003_263245"
      x1="94.6246"
      y1="44.2812"
      x2="114.816"
      y2="72.8775"
      gradientUnits="userSpaceOnUse"
    >
      <stop stop-color="#BCCBE1" />
      <stop offset=".9942" stop-color="#fff" stop-opacity="0" />
    </linearGradient>
    <linearGradient
      id="ecas4kccw__paint2_linear_10003_263245"
      x1="71.0505"
      y1="32.0407"
      x2="89.9753"
      y2="63.7107"
      gradientUnits="userSpaceOnUse"
    >
      <stop stop-color="#E2E8F0" />
      <stop offset=".9942" stop-color="#fff" stop-opacity="0" />
    </linearGradient>
    <linearGradient
      id="ecas4kccw__paint3_linear_10003_263245"
      x1="60.0292"
      y1="73.9841"
      x2="100.062"
      y2="73.9841"
      gradientUnits="userSpaceOnUse"
    >
      <stop stop-color="#B0BACC" />
      <stop offset="1" stop-color="#969EAE" />
    </linearGradient>
    <filter
      id="ecas4kccw__filter0_d_10003_263245"
      x="13.902"
      y="16.7134"
      width="130.889"
      height="90.8423"
      filterUnits="userSpaceOnUse"
      color-interpolation-filters="sRGB"
    >
      <feFlood flood-opacity="0" result="BackgroundImageFix" />
      <feColorMatrix in="SourceAlpha" values="0 0 0 0 0 0 0 0 0 0 0 0 0 0 0 0 0 0 127 0" result="hardAlpha" />
      <feOffset dy="10" />
      <feGaussianBlur stdDeviation="5" />
      <feComposite in2="hardAlpha" operator="out" />
      <feColorMatrix values="0 0 0 0 0.396078 0 0 0 0 0.478431 0 0 0 0 0.576471 0 0 0 0.24 0" />
      <feBlend in2="BackgroundImageFix" result="effect1_dropShadow_10003_263245" />
      <feBlend in="SourceGraphic" in2="effect1_dropShadow_10003_263245" result="shape" />
    </filter>
  </defs>
</svg>
