<?xml version="1.0" standalone="no"?><!DOCTYPE svg PUBLIC "-//W3C//DTD SVG 1.1//EN" "http://www.w3.org/Graphics/SVG/1.1/DTD/svg11.dtd"><svg t="1643164902446" class="icon" viewBox="0 0 1024 1024" version="1.1" xmlns="http://www.w3.org/2000/svg" p-id="42054" xmlns:xlink="http://www.w3.org/1999/xlink" width="200" height="200"><defs><style type="text/css"></style></defs><path d="M810.688 426.688h42.624a42.688 42.688 0 0 1 42.688 42.624V896a42.624 42.624 0 0 1-42.688 42.688H170.688A42.624 42.624 0 0 1 128 896V469.312a42.688 42.688 0 0 1 42.688-42.624h42.624V384a298.688 298.688 0 0 1 597.376 0v42.688zM213.312 512v341.312h597.376V512H213.312z m256 85.312h85.376V768H469.312V597.312z m256-170.624V384a213.312 213.312 0 0 0-426.624 0v42.688h426.624z" fill="#C4C6CC" p-id="42055"></path></svg>