<svg width="24" height="24" viewBox="0 0 24 24" fill="none" xmlns="http://www.w3.org/2000/svg">
<path d="M0.5 12.001C0.5 5.65033 5.64936 0.500977 12 0.500977C18.3506 0.500977 23.5 5.65033 23.5 12.001C23.5 18.3516 18.3506 23.501 12 23.501C5.64936 23.501 0.5 18.3516 0.5 12.001Z" stroke="#DCDFE6"/>
<path fill-rule="evenodd" clip-rule="evenodd" d="M8.16667 12.6676H11.3333V15.8343C11.3333 15.926 11.4083 16.001 11.5 16.001H12.5C12.5917 16.001 12.6667 15.926 12.6667 15.8343V12.6676H15.8333C15.925 12.6676 16 12.5926 16 12.501V11.501C16 11.4093 15.925 11.3343 15.8333 11.3343H12.6667V8.16764C12.6667 8.07598 12.5917 8.00098 12.5 8.00098H11.5C11.4083 8.00098 11.3333 8.07598 11.3333 8.16764V11.3343H8.16667C8.075 11.3343 8 11.4093 8 11.501V12.501C8 12.5926 8.075 12.6676 8.16667 12.6676Z" fill="#454852"/>
</svg>