<svg fill="none" xmlns="http://www.w3.org/2000/svg" viewBox="0 0 160 120" class="design-iconfont">
  <path
    d="M140.969 58.2675C134.715 53.7813 127.226 51.606 120.325 48.3571C113.692 45.2326 108.975 40.2039 103.038 36.068C93.3432 29.3047 82.1341 24.2308 70.7266 21.1345C59.1944 18.0043 45.0994 16.2697 34.5877 23.2081C29.4169 26.6209 25.21 31.9151 23.4921 37.893C21.451 45.0065 23.4467 52.2727 24.4276 59.3806C25.2213 65.1551 21.502 68.3418 17.1193 71.6245C6.85708 79.3088 3.27817 91.926 18.1388 101.768C32.9995 111.609 124.572 111.659 139.461 101.297C154.35 90.9339 156.884 69.6978 140.969 58.2675Z"
    fill="#F0F3FA"
  />
  <path
    d="M140.949 33.5137C143.82 33.5137 146.146 31.194 146.146 28.3165C146.146 25.4517 143.82 23.1193 140.949 23.1193C138.079 23.1193 135.752 25.4517 135.752 28.3165C135.752 31.194 138.079 33.5137 140.949 33.5137Z"
    fill="#EAEEF9"
  />
  <path
    d="M148.509 11.7799C149.814 11.7799 150.871 10.7253 150.871 9.41755C150.871 8.11824 149.814 7.05518 148.509 7.05518C147.204 7.05518 146.146 8.11824 146.146 9.41755C146.146 10.7253 147.204 11.7799 148.509 11.7799Z"
    fill="#EAEEF9"
  />
  <path
    d="M23.3029 13.6698C24.8692 13.6698 26.1378 12.4043 26.1378 10.835C26.1378 9.2758 24.8692 8.00012 23.3029 8.00012C21.7377 8.00012 20.4681 9.2758 20.4681 10.835C20.4681 12.4043 21.7377 13.6698 23.3029 13.6698Z"
    fill="#EAEEF9"
  />
  <path
    d="M9.60115 66.5869C11.9497 66.5869 13.8534 64.6816 13.8534 62.3347C13.8534 59.9877 11.9497 58.0824 9.60115 58.0824C7.2534 58.0824 5.34888 59.9877 5.34888 62.3347C5.34888 64.6816 7.2534 66.5869 9.60115 66.5869Z"
    fill="#EAEEF9"
  />
  <g filter="url(#rxuoe0oca__filter0_d_10003_263363)">
    <path
      d="M130 28.4816V88.6093C130 91.116 127.987 93.0909 125.519 93.0909H34.5124C32.0447 93.0909 30 91.0834 30 88.6093V28.4816C30 26.0184 32.013 24 34.5124 24H125.519C127.987 24 130 26.0184 130 28.4816Z"
      fill="url(#rxuoe0oca__paint0_linear_10003_263363)"
    />
  </g>
  <path d="M130 28.7354V35.8442H30V28.7354C30 26.1326 32.013 24 34.5124 24H125.519C127.987 24 130 26.1326 130 28.7354Z" fill="#D5DDEA" />
  <path
    d="M36.8627 31.896C37.9457 31.896 38.8235 31.0074 38.8235 29.9157C38.8235 28.8239 37.9457 27.948 36.8627 27.948C35.7797 27.948 34.9019 28.8239 34.9019 29.9157C34.9019 31.0074 35.7797 31.896 36.8627 31.896Z"
    fill="#989FB0"
  />
  <path
    d="M43.7255 31.896C44.8085 31.896 45.6862 31.0074 45.6862 29.9157C45.6862 28.8239 44.8085 27.948 43.7255 27.948C42.6425 27.948 41.7647 28.8239 41.7647 29.9157C41.7647 31.0074 42.6425 31.896 43.7255 31.896Z"
    fill="#989FB0"
  />
  <path
    d="M50.5883 31.896C51.6712 31.896 52.549 31.0074 52.549 29.9157C52.549 28.8239 51.6712 27.948 50.5883 27.948C49.5053 27.948 48.6275 28.8239 48.6275 29.9157C48.6275 31.0074 49.5053 31.896 50.5883 31.896Z"
    fill="#989FB0"
  />
  <path
    d="M109.777 81.2727H49.3138C49.2395 81.2727 49.1659 81.2639 49.093 81.2465C49.0201 81.229 48.9493 81.2031 48.8806 81.1689C48.8119 81.1346 48.7467 81.0926 48.6849 81.0429C48.6231 80.9931 48.5659 80.9366 48.5134 80.8733C48.4608 80.81 48.4139 80.7411 48.3726 80.6666C48.3313 80.5922 48.2964 80.5136 48.268 80.4309C48.2395 80.3482 48.2181 80.2629 48.2036 80.1751C48.1891 80.0873 48.1818 79.9986 48.1818 79.909C48.1818 79.8195 48.1891 79.7308 48.2036 79.643C48.2181 79.5552 48.2395 79.4699 48.268 79.3872C48.2964 79.3045 48.3313 79.2259 48.3726 79.1514C48.4139 79.077 48.4608 79.0081 48.5134 78.9448C48.5659 78.8815 48.6231 78.825 48.6849 78.7752C48.7467 78.7255 48.8119 78.6835 48.8806 78.6492C48.9493 78.6149 49.0201 78.5891 49.093 78.5716C49.1659 78.5541 49.2395 78.5454 49.3138 78.5454H109.777C109.851 78.5454 109.925 78.5541 109.998 78.5716C110.071 78.5891 110.142 78.6149 110.21 78.6492C110.279 78.6835 110.344 78.7255 110.406 78.7752C110.468 78.825 110.525 78.8815 110.578 78.9448C110.63 79.0081 110.677 79.077 110.718 79.1514C110.76 79.2259 110.795 79.3045 110.823 79.3872C110.851 79.4699 110.873 79.5552 110.887 79.643C110.902 79.7308 110.909 79.8195 110.909 79.909C110.909 79.9986 110.902 80.0873 110.887 80.1751C110.873 80.2629 110.851 80.3482 110.823 80.4309C110.795 80.5136 110.76 80.5922 110.718 80.6666C110.677 80.7411 110.63 80.81 110.578 80.8733C110.525 80.9366 110.468 80.9931 110.406 81.0429C110.344 81.0926 110.279 81.1346 110.21 81.1689C110.142 81.2031 110.071 81.229 109.998 81.2465C109.925 81.2639 109.851 81.2727 109.777 81.2727Z"
    fill="#D5DDEA"
  />
  <path
    d="M98.9391 87.6363H60.1518C60.0821 87.6363 60.0131 87.6276 59.9448 87.6101C59.8765 87.5927 59.8101 87.5668 59.7458 87.5325C59.6814 87.4983 59.6203 87.4563 59.5624 87.4065C59.5045 87.3568 59.4509 87.3002 59.4016 87.2369C59.3524 87.1736 59.3084 87.1047 59.2697 87.0303C59.231 86.9558 59.1983 86.8773 59.1717 86.7945C59.145 86.7118 59.1249 86.6265 59.1113 86.5387C59.0977 86.4509 59.0909 86.3622 59.0909 86.2727C59.0909 86.1832 59.0977 86.0945 59.1113 86.0067C59.1249 85.9188 59.145 85.8336 59.1717 85.7509C59.1983 85.6681 59.231 85.5895 59.2697 85.5151C59.3084 85.4406 59.3524 85.3718 59.4016 85.3085C59.4509 85.2451 59.5045 85.1886 59.5624 85.1389C59.6203 85.0891 59.6814 85.0471 59.7458 85.0129C59.8101 84.9786 59.8765 84.9527 59.9448 84.9353C60.0131 84.9178 60.0821 84.9091 60.1518 84.9091H98.9391C99.0088 84.9091 99.0778 84.9178 99.1461 84.9353C99.2144 84.9527 99.2808 84.9786 99.3451 85.0129C99.4095 85.0471 99.4706 85.0891 99.5286 85.1389C99.5865 85.1886 99.6401 85.2451 99.6893 85.3085C99.7385 85.3718 99.7825 85.4406 99.8212 85.5151C99.8599 85.5895 99.8926 85.6681 99.9193 85.7509C99.9459 85.8336 99.9661 85.9188 99.9796 86.0067C99.9932 86.0945 100 86.1832 100 86.2727C100 86.3622 99.9932 86.4509 99.9796 86.5387C99.9661 86.6265 99.9459 86.7118 99.9193 86.7945C99.8926 86.8773 99.8599 86.9558 99.8212 87.0303C99.7825 87.1047 99.7385 87.1736 99.6893 87.2369C99.6401 87.3002 99.5865 87.3568 99.5286 87.4065C99.4706 87.4563 99.4095 87.4983 99.3451 87.5325C99.2808 87.5668 99.2144 87.5927 99.1461 87.6101C99.0778 87.6276 99.0088 87.6363 98.9391 87.6363Z"
    fill="#D5DDEA"
  />
  <g filter="url(#rxuoe0oca__filter1_d_10003_263363)">
    <path
      d="M60.6624 67.5843L76.4766 42.1557C78.1976 39.7663 81.8012 39.7663 83.5222 42.1557L99.3365 67.5843C101.003 69.8656 99.3365 73.0909 96.4859 73.0909H63.5672C60.6624 73.0418 58.9956 69.8656 60.6624 67.5843Z"
      fill="url(#rxuoe0oca__paint1_linear_10003_263363)"
    />
    <path
      d="M80.0001 48.6654C78.493 48.6654 77.3208 50.0126 77.4331 51.5859L78.2704 61.065C78.3255 62.009 79.1067 62.7662 80.0001 62.7662C80.8935 62.7662 81.6746 62.009 81.7298 61.065L82.5671 51.5859C82.6793 49.9536 81.5072 48.6654 80.0001 48.6654Z"
      fill="#fff"
    />
    <path
      d="M80 64.5166C78.8839 64.5166 77.9905 65.4606 77.9905 66.6307C77.9905 67.8009 78.8839 68.735 80 68.735C81.116 68.735 82.0094 67.8009 82.0094 66.6307C82.0094 65.4606 81.116 64.5166 80 64.5166Z"
      fill="#fff"
    />
  </g>
  <defs>
    <linearGradient
      id="rxuoe0oca__paint0_linear_10003_263363"
      x1="79.9684"
      y1="22.3995"
      x2="79.9684"
      y2="93.8343"
      gradientUnits="userSpaceOnUse"
    >
      <stop stop-color="#FDFEFF" />
      <stop offset=".9964" stop-color="#EBF0F5" />
    </linearGradient>
    <linearGradient
      id="rxuoe0oca__paint1_linear_10003_263363"
      x1="59.9819"
      y1="57.5938"
      x2="100.007"
      y2="57.5938"
      gradientUnits="userSpaceOnUse"
    >
      <stop stop-color="#B0BACC" />
      <stop offset="1" stop-color="#969EAE" />
    </linearGradient>
    <filter
      id="rxuoe0oca__filter0_d_10003_263363"
      x="20.9091"
      y="24"
      width="118.182"
      height="87.2728"
      filterUnits="userSpaceOnUse"
      color-interpolation-filters="sRGB"
    >
      <feFlood flood-opacity="0" result="BackgroundImageFix" />
      <feColorMatrix in="SourceAlpha" values="0 0 0 0 0 0 0 0 0 0 0 0 0 0 0 0 0 0 127 0" result="hardAlpha" />
      <feOffset dy="9.09091" />
      <feGaussianBlur stdDeviation="4.54545" />
      <feComposite in2="hardAlpha" operator="out" />
      <feColorMatrix values="0 0 0 0 0.396078 0 0 0 0 0.478431 0 0 0 0 0.576471 0 0 0 0.24 0" />
      <feBlend in2="BackgroundImageFix" result="effect1_dropShadow_10003_263363" />
      <feBlend in="SourceGraphic" in2="effect1_dropShadow_10003_263363" result="shape" />
    </filter>
    <filter
      id="rxuoe0oca__filter1_d_10003_263363"
      x="50.9091"
      y="34.9091"
      width="58.1818"
      height="50.9091"
      filterUnits="userSpaceOnUse"
      color-interpolation-filters="sRGB"
    >
      <feFlood flood-opacity="0" result="BackgroundImageFix" />
      <feColorMatrix in="SourceAlpha" values="0 0 0 0 0 0 0 0 0 0 0 0 0 0 0 0 0 0 127 0" result="hardAlpha" />
      <feOffset dy="3.63636" />
      <feGaussianBlur stdDeviation="4.54545" />
      <feComposite in2="hardAlpha" operator="out" />
      <feColorMatrix values="0 0 0 0 0.396078 0 0 0 0 0.478431 0 0 0 0 0.576471 0 0 0 0.3 0" />
      <feBlend in2="BackgroundImageFix" result="effect1_dropShadow_10003_263363" />
      <feBlend in="SourceGraphic" in2="effect1_dropShadow_10003_263363" result="shape" />
    </filter>
  </defs>
</svg>
