<svg xmlns="http://www.w3.org/2000/svg" fill="none" viewBox="0 0 16 16" class="design-iconfont warning">
  <path fill-rule="evenodd" clip-rule="evenodd" d="M8 0C12.4183 0 16 3.58172 16 8C16 12.4183 12.4183 16 8 16C3.58172 16 0 12.4183 0 8C0 3.58172 3.58172 0 8 0ZM7.55556 7.33333C7.45036 7.33333 7.36223 7.44298 7.3392 7.59024L7.33333 7.66667V12.3333C7.33333 12.4911 7.40643 12.6233 7.5046 12.6579L7.55556 12.6667H8.44444C8.54964 12.6667 8.63777 12.557 8.6608 12.4098L8.66667 12.3333V7.66667C8.66667 7.50887 8.59357 7.37668 8.4954 7.34214L8.44444 7.33333H7.55556ZM8 6C8.55229 6 9 5.55228 9 5C9 4.44772 8.55229 4 8 4C7.44772 4 7 4.44772 7 5C7 5.55228 7.44772 6 8 6Z" fill="#C4C6CC"/>
</svg>
