<svg fill="none" xmlns="http://www.w3.org/2000/svg" viewBox="0 0 14 14" class="design-iconfont">
  <path fill-rule="evenodd" clip-rule="evenodd" d="M0.875 7C0.875 3.61758 3.61758 0.875 7 0.875C10.3824 0.875 13.125 3.61758 13.125 7C13.125 10.3824 10.3824 13.125 7 13.125C3.61758 13.125 0.875 10.3824 0.875 7ZM1.91406 7C1.91406 9.8082 4.1918 12.0859 7 12.0859C9.8082 12.0859 12.0859 9.8082 12.0859 7C12.0859 4.1918 9.8082 1.91406 7 1.91406C4.1918 1.91406 1.91406 4.1918 1.91406 7ZM8.52578 4.32988C8.11562 3.97031 7.57422 3.77344 7 3.77344C6.42578 3.77344 5.88438 3.97168 5.47422 4.32988C5.04766 4.70312 4.8125 5.20488 4.8125 5.74219V5.84609C4.8125 5.90625 4.86172 5.95547 4.92188 5.95547H5.57812C5.63828 5.95547 5.6875 5.90625 5.6875 5.84609V5.74219C5.6875 5.13926 6.27676 4.64844 7 4.64844C7.72324 4.64844 8.3125 5.13926 8.3125 5.74219C8.3125 6.16738 8.01172 6.55703 7.54551 6.73613C7.25566 6.84688 7.00957 7.04102 6.8332 7.29531C6.6541 7.55508 6.56113 7.8668 6.56113 8.18262V8.47656C6.56113 8.53672 6.61035 8.58594 6.67051 8.58594H7.32676C7.38691 8.58594 7.43613 8.53672 7.43613 8.47656V8.16621C7.43613 7.89687 7.60566 7.65078 7.85859 7.55371C8.66523 7.24336 9.18613 6.53242 9.18613 5.74219C9.1875 5.20488 8.95234 4.70312 8.52578 4.32988ZM7 10.5547C6.69797 10.5547 6.45312 10.3098 6.45312 10.0078C6.45312 9.70578 6.69797 9.46094 7 9.46094C7.30203 9.46094 7.54688 9.70578 7.54688 10.0078C7.54688 10.3098 7.30203 10.5547 7 10.5547Z" fill="#83878F"/>
</svg>
