<svg width="60" height="32" viewBox="0 0 60 32" fill="none" xmlns="http://www.w3.org/2000/svg">
<g clip-path="url(#clip0)">
<rect opacity="0.01" width="60" height="32" fill="#d93934"/>
<path fill-rule="evenodd" clip-rule="evenodd" d="M0 15.6901H0.247175C4.31447 15.6901 8.38152 15.6901 12.4483 15.6901C12.5822 15.6721 12.7113 15.747 12.7621 15.8722C13.9363 18.0584 16.6057 18.9581 18.8638 17.9288C19.9126 17.4578 20.867 16.8001 21.6804 15.9876C23.2247 14.4473 24.5608 12.7115 25.6544 10.8243C27.2858 8.09632 28.6964 5.24224 29.8727 2.28936C29.9053 2.20869 29.9401 2.12877 29.9941 2C30.0437 2.11767 30.0784 2.19833 30.1117 2.27974C31.2856 5.22642 32.6916 8.07518 34.3167 10.7992C35.3138 12.5057 36.4999 14.0945 37.8526 15.5354C38.8381 16.6373 40.065 17.4965 41.4374 18.0457C43.6427 18.8763 46.1219 17.942 47.2305 15.8625C47.2792 15.7448 47.3999 15.6736 47.5265 15.6879C51.6002 15.6918 55.6739 15.6918 59.7476 15.6879H60C59.7906 15.9225 59.6211 16.1208 59.4435 16.3118C57.2899 18.6725 54.4481 20.2958 51.3207 20.9518C49.8382 21.2534 48.3227 21.3614 46.8124 21.273C44.5242 21.191 42.2689 20.7023 40.152 19.8299C38.6616 19.2138 37.2857 18.3512 36.0817 17.2783C35.9684 17.1729 35.8173 17.1182 35.6628 17.1265C31.8827 17.1305 28.102 17.1305 24.3209 17.1265C24.1667 17.1196 24.0163 17.1751 23.9035 17.2805C21.9604 18.9761 19.6248 20.16 17.1084 20.7247C15.0215 21.2364 12.8661 21.4113 10.724 21.2427C6.61841 20.9566 2.80342 19.0209 0.148009 15.8766C0.108787 15.8315 0.0740046 15.7826 0 15.6901Z" fill="#d93934"/>
<path fill-rule="evenodd" clip-rule="evenodd" d="M14.0935 28.6461H12.7288V24.2058H14.0913V28.6461H14.0935ZM29.3043 24.2058V25.9027H24.7738V24.2088H23.4113V28.649H24.7738V26.9492H29.3058V28.6461H30.6682V24.2058H29.3058H29.3043ZM16.4874 28.6462V26.116C16.5027 25.6243 16.9133 25.2378 17.4051 25.2524H20.0996C20.5913 25.2378 21.0019 25.6243 21.0172 26.116V28.6462H22.3804V26.056C22.3486 25.0029 21.4695 24.1748 20.4163 24.2059H17.0861C16.033 24.1748 15.1538 25.0029 15.122 26.056V28.6462H16.4852H16.4874ZM41.3464 28.6462V26.116C41.3617 25.6243 41.7723 25.2378 42.2641 25.2524H44.9586C45.4503 25.2378 45.861 25.6243 45.8763 26.116V28.6462H47.2394V26.056C47.2076 25.0029 46.3285 24.1748 45.2753 24.2059H41.9451C40.892 24.1748 40.0129 25.0029 39.981 26.056V28.6462H41.3442H41.3464ZM36.989 24.2059H33.6588C32.6059 24.1752 31.727 25.0031 31.6947 26.056V26.7961C31.727 27.849 32.6059 28.6769 33.6588 28.6462H36.989C38.0422 28.6773 38.9213 27.8492 38.9531 26.7961V26.056C38.9213 25.0029 38.0422 24.1748 36.989 24.2059ZM37.5906 26.426V26.7376C37.5753 27.2293 37.1647 27.6157 36.673 27.6012H33.9777C33.486 27.6157 33.0754 27.2293 33.0601 26.7376V26.1159C33.0754 25.6242 33.486 25.2378 33.9777 25.2523H36.673C37.1647 25.2378 37.5753 25.6242 37.5906 26.1159V26.4275V26.426ZM11.7002 27.2071V24.2092H10.337V27.1916C10.3377 27.2209 10.3291 27.2496 10.3126 27.2737C10.2841 27.3024 10.2443 27.3168 10.2041 27.3131C10.1639 27.3094 10.1274 27.2879 10.1047 27.2545L8.78145 25.3037L8.41143 24.7613C8.34045 24.6387 8.21243 24.5602 8.07101 24.5526C7.92955 24.5601 7.80147 24.6386 7.73059 24.7613L7.36057 25.3037L6.03662 27.2545C6.01403 27.2879 5.97768 27.3093 5.93756 27.3131C5.89744 27.3168 5.85776 27.3024 5.82941 27.2737C5.81309 27.2494 5.80433 27.2209 5.80425 27.1916V24.2092H4.44182V27.2093C4.44182 27.216 4.44182 27.2227 4.44182 27.2286C4.39728 27.6238 4.53796 28.0174 4.82292 28.2948C5.10788 28.5723 5.5051 28.7024 5.89897 28.6473C6.30727 28.6422 6.68693 28.4366 6.91432 28.0974L7.93188 26.5973C7.95748 26.5451 8.0106 26.5119 8.06879 26.5119C8.12698 26.5119 8.1801 26.5451 8.2057 26.5973L9.22326 28.0974C9.45065 28.4366 9.83031 28.6422 10.2386 28.6473C10.6325 28.7024 11.0297 28.5723 11.3147 28.2948C11.5996 28.0174 11.7403 27.6238 11.6958 27.2286C11.6961 27.2222 11.6961 27.2158 11.6958 27.2093L11.7002 27.2071ZM55.5072 25.9057H50.3809V26.9492H54.1211C54.0059 27.3421 53.6424 27.6095 53.233 27.6027H50.5385C50.0468 27.6172 49.6361 27.2307 49.6208 26.739V26.1159C49.6361 25.6242 50.0468 25.2377 50.5385 25.2523H55.3185C54.9696 24.6018 54.2878 24.1996 53.5497 24.2088H50.2195C49.1664 24.1777 48.2873 25.0058 48.2555 26.0589V26.799C48.2873 27.8521 49.1664 28.6802 50.2195 28.6491H53.5497C54.5431 28.6743 55.3924 27.939 55.5094 26.9522V25.9087L55.5072 25.9057Z" fill="#d93934"/>
</g>
<defs>
<clipPath id="clip0">
<rect width="60" height="32" fill="#d93934"/>
</clipPath>
</defs>
</svg>
